/* XPM */
static xpm_string_t A_xpm[] = {
"21 22 72 1",
" 	c None",
".	c #000000",
"+	c #CECECE",
"@	c #FFFFFF",
"#	c #656565",
"$	c #3B3B3B",
"%	c #F9F9F9",
"&	c #BDBDBD",
"*	c #A4A4A4",
"=	c #F1F1F1",
"-	c #0D0D0D",
";	c #E1E1E1",
">	c #FCFCFC",
",	c #D0D0D0",
"'	c #8C8C8C",
")	c #666666",
"!	c #D8D8D8",
"~	c #787878",
"{	c #D2D2D2",
"]	c #9A9A9A",
"^	c #EAEAEA",
"/	c #FBFBFB",
"(	c #454545",
"_	c #F7F7F7",
":	c #2E2E2E",
"<	c #B4B4B4",
"[	c #AAAAAA",
"}	c #8D8D8D",
"|	c #CBCBCB",
"1	c #5A5A5A",
"2	c #FEFEFE",
"3	c #E5E5E5",
"4	c #848484",
"5	c #DEDEDE",
"6	c #707070",
"7	c #EFEFEF",
"8	c #A3A3A3",
"9	c #C2C2C2",
"0	c #ABABAB",
"a	c #FAFAFA",
"b	c #F4F4F4",
"c	c #1C1C1C",
"d	c #E6E6E6",
"e	c #6A6A6A",
"f	c #D1D1D1",
"g	c #949494",
"h	c #717171",
"i	c #D7D7D7",
"j	c #C3C3C3",
"k	c #ADADAD",
"l	c #161616",
"m	c #F3F3F3",
"n	c #FDFDFD",
"o	c #4F4F4F",
"p	c #222222",
"q	c #B0B0B0",
"r	c #959595",
"s	c #E9E9E9",
"t	c #797979",
"u	c #C7C7C7",
"v	c #B1B1B1",
"w	c #E0E0E0",
"x	c #7A7A7A",
"y	c #F6F6F6",
"z	c #2A2A2A",
"A	c #9F9F9F",
"B	c #E7E7E7",
"C	c #9B9B9B",
"D	c #DBDBDB",
"E	c #C8C8C8",
"F	c #C5C5C5",
"G	c #3D3D3D",
"........+@@@#........",
".......$%@@@&........",
".......*@@@@=-.......",
".......;@>,@@'.......",
"......)@@!~@@{.......",
"......&@@].^@/(......",
".....-=@_:.<@@[......",
".....}@@|..12@3......",
".....{@@4...5@@6.....",
"....(/@7....8@@9.....",
"....0@@&....$a@bc....",
"....d@@e.....f@@g....",
"...h@@3......}@@i....",
"...j@@k......lm@no...",
"..pb@@@@@@@@@@@@@q...",
"..r@@@@@@@@@@@@@@s...",
"..i@@@@@@@@@@@@@@@t..",
".on@@e.........|@@u..",
".v@@w..........x@@yz.",
".^@@A...........B@@C.",
"x@@y:...........[@@D.",
"E@@F............G%@21"};
