/* XPM */
static xpm_string_t asteroid_small_xpm[] = {
"50 44 215 2",
"  	c #FFC0CB",
". 	c #868686",
"+ 	c #999999",
"@ 	c #979797",
"# 	c #8C8C8C",
"$ 	c #848484",
"% 	c #828282",
"& 	c #7B7B7B",
"* 	c #5D5D5D",
"= 	c #929292",
"- 	c #B4B4B4",
"; 	c #B3B3B3",
"> 	c #AAAAAA",
", 	c #AFAFAF",
"' 	c #A9A9A9",
") 	c #9B9B9B",
"! 	c #8E8E8E",
"~ 	c #888888",
"{ 	c #808080",
"] 	c #464646",
"^ 	c #636363",
"/ 	c #ADADAD",
"( 	c #A8A8A8",
"_ 	c #A1A1A1",
": 	c #B2B2B2",
"< 	c #969696",
"[ 	c #9F9F9F",
"} 	c #A3A3A3",
"| 	c #939393",
"1 	c #8A8A8A",
"2 	c #3A3A3A",
"3 	c #575757",
"4 	c #626262",
"5 	c #797979",
"6 	c #8D8D8D",
"7 	c #949494",
"8 	c #9E9E9E",
"9 	c #A7A7A7",
"0 	c #9A9A9A",
"a 	c #A2A2A2",
"b 	c #AEAEAE",
"c 	c #7D7D7D",
"d 	c #474747",
"e 	c #646464",
"f 	c #676767",
"g 	c #6B6B6B",
"h 	c #767676",
"i 	c #838383",
"j 	c #9C9C9C",
"k 	c #B5B5B5",
"l 	c #B7B7B7",
"m 	c #8B8B8B",
"n 	c #535353",
"o 	c #616161",
"p 	c #7F7F7F",
"q 	c #A4A4A4",
"r 	c #B9B9B9",
"s 	c #959595",
"t 	c #8F8F8F",
"u 	c #878787",
"v 	c #B6B6B6",
"w 	c #696969",
"x 	c #292929",
"y 	c #787878",
"z 	c #989898",
"A 	c #BBBBBB",
"B 	c #BABABA",
"C 	c #818181",
"D 	c #898989",
"E 	c #B0B0B0",
"F 	c #858585",
"G 	c #777777",
"H 	c #353535",
"I 	c #545454",
"J 	c #5F5F5F",
"K 	c #9D9D9D",
"L 	c #1F1F1F",
"M 	c #424242",
"N 	c #4D4D4D",
"O 	c #606060",
"P 	c #656565",
"Q 	c #747474",
"R 	c #7E7E7E",
"S 	c #ACACAC",
"T 	c #ABABAB",
"U 	c #2E2E2E",
"V 	c #444444",
"W 	c #5B5B5B",
"X 	c #6C6C6C",
"Y 	c #A0A0A0",
"Z 	c #BDBDBD",
"` 	c #919191",
" .	c #262626",
"..	c #3C3C3C",
"+.	c #4E4E4E",
"@.	c #666666",
"#.	c #6E6E6E",
"$.	c #7A7A7A",
"%.	c #C1C1C1",
"&.	c #6A6A6A",
"*.	c #2A2A2A",
"=.	c #494949",
"-.	c #757575",
";.	c #5E5E5E",
">.	c #909090",
",.	c #A5A5A5",
"'.	c #C7C7C7",
").	c #CCCCCC",
"!.	c #C2C2C2",
"~.	c #B1B1B1",
"{.	c #A6A6A6",
"].	c #080808",
"^.	c #C0C0C0",
"/.	c #D0D0D0",
"(.	c #DDDDDD",
"_.	c #C8C8C8",
":.	c #C3C3C3",
"<.	c #707070",
"[.	c #151515",
"}.	c #515151",
"|.	c #C9C9C9",
"1.	c #CACACA",
"2.	c #131313",
"3.	c #1A1A1A",
"4.	c #505050",
"5.	c #6F6F6F",
"6.	c #D7D7D7",
"7.	c #D1D1D1",
"8.	c #BEBEBE",
"9.	c #D9D9D9",
"0.	c #D5D5D5",
"a.	c #BCBCBC",
"b.	c #3D3D3D",
"c.	c #525252",
"d.	c #C5C5C5",
"e.	c #E3E3E3",
"f.	c #EAEAEA",
"g.	c #D2D2D2",
"h.	c #D8D8D8",
"i.	c #E1E1E1",
"j.	c #DCDCDC",
"k.	c #DADADA",
"l.	c #C6C6C6",
"m.	c #B8B8B8",
"n.	c #7C7C7C",
"o.	c #161616",
"p.	c #303030",
"q.	c #585858",
"r.	c #CECECE",
"s.	c #E6E6E6",
"t.	c #CFCFCF",
"u.	c #CBCBCB",
"v.	c #232323",
"w.	c #3F3F3F",
"x.	c #C4C4C4",
"y.	c #E4E4E4",
"z.	c #555555",
"A.	c #BFBFBF",
"B.	c #323232",
"C.	c #484848",
"D.	c #5A5A5A",
"E.	c #686868",
"F.	c #CDCDCD",
"G.	c #D6D6D6",
"H.	c #313131",
"I.	c #363636",
"J.	c #D4D4D4",
"K.	c #4F4F4F",
"L.	c #2B2B2B",
"M.	c #373737",
"N.	c #595959",
"O.	c #191919",
"P.	c #6D6D6D",
"Q.	c #404040",
"R.	c #252525",
"S.	c #202020",
"T.	c #454545",
"U.	c #717171",
"V.	c #3E3E3E",
"W.	c #060606",
"X.	c #242424",
"Y.	c #414141",
"Z.	c #727272",
"`.	c #000000",
" +	c #0B0B0B",
".+	c #0F0F0F",
"++	c #111111",
"@+	c #4B4B4B",
"#+	c #393939",
"$+	c #565656",
"%+	c #010101",
"&+	c #040404",
"*+	c #0C0C0C",
"=+	c #050505",
"-+	c #1C1C1C",
";+	c #070707",
">+	c #2D2D2D",
",+	c #5C5C5C",
"'+	c #737373",
")+	c #030303",
"!+	c #0D0D0D",
"~+	c #212121",
"{+	c #0E0E0E",
"]+	c #434343",
"^+	c #121212",
"/+	c #4C4C4C",
"(+	c #4A4A4A",
"_+	c #101010",
":+	c #222222",
"<+	c #1B1B1B",
"[+	c #343434",
"}+	c #3B3B3B",
"|+	c #020202",
"1+	c #282828",
"2+	c #0A0A0A",
"                                                                                                    ",
"                                                                                                    ",
"                                                                                                    ",
"                                          . + @ # . $ % . &                                         ",
"                                      * = - ; > , ' ) # ! $ ~ {                                     ",
"                                  ] ^ @ / ( _ ' : > < [ } @ | 1 %                                   ",
"                              2 3 4 5 6 | 7 8 9 } # ! 0 > < a b + c 4                               ",
"                            d e f g h i = 0 [ ) # % # j 9 ! [ k l m ~ &                             ",
"                          n o * * p m q : r [ s t u % 6 ( < ! < v [ # % w                           ",
"                      x 3 4 g y # u z a r A B } 7 C c D E > j ' } 8 @ 1 F G                         ",
"                      H I J y t < F 7 q : : : K K _ j b E + _ ' ' > ' ( ( z c                       ",
"                    L M N O P Q R ~ ! t _ S > ( q E a _ ( | @ 0 q 9 > T E a z y                     ",
"                    U V W e W X C & p t [ Y - Z ( ` { q r a < _ } _ S : / S ' u                     ",
"                   ...+.@.e J #.$.{ C 6 ) @ ! b %.< # j ; ; } @ 8 z _ b b > : @ &.                  ",
"                  *.=.e -.h ;.#.u z m R >.< j _ , , ) ,.'.).!., : ; ~.; : T l {.c                   ",
"                ].*.&.p Q e &.! ! ` $ # 6 z Y - ^.r l %./.(._.b T r :.: a ~.B k # <.                ",
"                [.L W }.J $.Y {.7 ! | | j ! + |.1.%.:.k 9 r %., ,.A '.A {.~.B ; = R                 ",
"                2.3.2 4.5.D ! 0 K a K ,.q m k 1.6.7.|.).|.%.8.Z 9.0./.!.~.a.'.^._ c                 ",
"                3.x b.c.f i F m 0 + ) j l k d.S %.e.f.g.).a.a.h.i.j.k.g.d.l.1.m.) n.^               ",
"                o.p.=.q.Q p ~ t i ! s z ; Z '.a r.i.h.!.v 8.^.r.0.6.s.s.t.u.l.T @ <.4               ",
"                v.w.^ @.n.p 6 ~ G $ } ' a A ~.:.j.t.l / : x.!.d.d.).y.j.6.%.:.S 0 e z.              ",
"                 .}.^ <.% ~ # C & G F | F } B /.%.b l %.l x.'.0.d.7.h.1.A.B - : s ;.=.              ",
"                B.C.D.$.# 6 ~ p E.& $ t m ,.' u.B T l.r.F.|.t.G.r.:.7.1.^.Z ; q F }.d               ",
"                H.b.I.c.i % u n.@.y # s z B m.> q a._.J.A.!.^.x.!.x.A.%.m.> @ < P K.N               ",
"                L.V M. .^ Q R & f g D q ~.t.r./ _ r E A.8.b ~.v _ Y = @ < = ! &.b.q.N.              ",
"                O.H.M 3.M &.5.h Q P.C , J.G.l.,.z ' v :._.T [ _ S s ( 6 @ 9 X K.n P 4.              ",
"                  3.Q.R.S.T.z.P U.Q i + T l.- ) 1 ` } _.A.9 k K Y 1.s 6 n.% W ] U.-.V.              ",
"                  W.L.L X.Y.] E.h Q U.1 A _ T s 7 q r b u 1 m [ K z F ! u q.M q.Z.I                 ",
"                  `. +.+++M.@+O C >.-.h T 1 % R s Y ` U.* c.q.g U.h n.4 #+w.$+g +.H                 ",
"                  `.%+&+].*.T.O -.` ~ w F # $ >.s P D.&.g q.+.w Q 4 W D.4.V n 2 b.I.                ",
"                    *+=+ +-+=.^ g = u G G { p @ { 5.f -.U.Z.U.<.C U.n.e Q.M.Q.N $+                  ",
"                    ;+2.;+++L.^ G 1 y 4 &.5 p G f ;.o #.X ^ X G $.G <.z.O E.& #.&.                  ",
"                      %+%+&+;+>+,+m ~ @.3 ^ * 5.U.e J '+#.<.$.J G ,+N.Q o e 4 D.H                   ",
"                          )+!+.+~+q.E.N.+.K.^ N.O q.n.$.h <.h -.5.4 g &.f &.Z. .                    ",
"                            ++3.X.N e ,+K.q.q.&.c.W % #.f ,+#.h -.4 e N.4 e Y.                      ",
"                            W.*+{+H ] N.W * ^ N ]+$+4.;.4 D.g #.P.Q C N.$+..                        ",
"                              %+)+^+B.M /+@+]+M K.(+I d q.,+U.<.u i q.+. .                          ",
"                                  `._+ .p...b.=.K.I q.Q.d n O &.c.:+:+<+                            ",
"                                      %+[.L.[+Q.V.Y.2 K.4.K.V._+ + .-+                              ",
"                                      `. +^+*.}+K.Q.]+]+..[.&+)+|+%+)+                              ",
"                                        %+`.|+^+v.>+1+^+)+W.2+%+`.                                  ",
"                                            `.%+%+|+|+`.                                            ",
"                                                                                                    ",
"                                                                                                    "};
