/* XPM */
static xpm_string_t asteroid_medium_xpm[] = {
"63 68 237 2",
"  	c #FFC0CB",
". 	c #5B5B5B",
"+ 	c #6C6C6C",
"@ 	c #787878",
"# 	c #737373",
"$ 	c #6B6B6B",
"% 	c #5E5E5E",
"& 	c #656565",
"* 	c #696969",
"= 	c #6F6F6F",
"- 	c #707070",
"; 	c #676767",
"> 	c #515151",
", 	c #949494",
"' 	c #999999",
") 	c #9C9C9C",
"! 	c #8E8E8E",
"~ 	c #8B8B8B",
"{ 	c #7F7F7F",
"] 	c #828282",
"^ 	c #838383",
"/ 	c #848484",
"( 	c #868686",
"_ 	c #7C7C7C",
": 	c #6A6A6A",
"< 	c #444444",
"[ 	c #5F5F5F",
"} 	c #919191",
"| 	c #B0B0B0",
"1 	c #B7B7B7",
"2 	c #B2B2B2",
"3 	c #A8A8A8",
"4 	c #A6A6A6",
"5 	c #A4A4A4",
"6 	c #A1A1A1",
"7 	c #9A9A9A",
"8 	c #929292",
"9 	c #8A8A8A",
"0 	c #8F8F8F",
"a 	c #909090",
"b 	c #858585",
"c 	c #7E7E7E",
"d 	c #6E6E6E",
"e 	c #4C4C4C",
"f 	c #6D6D6D",
"g 	c #B5B5B5",
"h 	c #ACACAC",
"i 	c #A7A7A7",
"j 	c #B1B1B1",
"k 	c #8D8D8D",
"l 	c #8C8C8C",
"m 	c #808080",
"n 	c #666666",
"o 	c #313131",
"p 	c #3E3E3E",
"q 	c #4D4D4D",
"r 	c #797979",
"s 	c #969696",
"t 	c #AEAEAE",
"u 	c #A3A3A3",
"v 	c #A5A5A5",
"w 	c #B9B9B9",
"x 	c #989898",
"y 	c #9D9D9D",
"z 	c #606060",
"A 	c #3F3F3F",
"B 	c #535353",
"C 	c #5A5A5A",
"D 	c #A9A9A9",
"E 	c #A0A0A0",
"F 	c #A2A2A2",
"G 	c #9B9B9B",
"H 	c #878787",
"I 	c #7B7B7B",
"J 	c #343434",
"K 	c #434343",
"L 	c #5D5D5D",
"M 	c #616161",
"N 	c #757575",
"O 	c #AAAAAA",
"P 	c #9E9E9E",
"Q 	c #959595",
"R 	c #AFAFAF",
"S 	c #ADADAD",
"T 	c #7D7D7D",
"U 	c #636363",
"V 	c #595959",
"W 	c #3B3B3B",
"X 	c #505050",
"Y 	c #646464",
"Z 	c #686868",
"` 	c #9F9F9F",
" .	c #898989",
"..	c #939393",
"+.	c #ABABAB",
"@.	c #BABABA",
"#.	c #BBBBBB",
"$.	c #B4B4B4",
"%.	c #575757",
"&.	c #626262",
"*.	c #888888",
"=.	c #B6B6B6",
"-.	c #BDBDBD",
";.	c #545454",
">.	c #979797",
",.	c #5C5C5C",
"'.	c #B8B8B8",
").	c #BFBFBF",
"!.	c #818181",
"~.	c #777777",
"{.	c #727272",
"].	c #747474",
"^.	c #292929",
"/.	c #717171",
"(.	c #1A1A1A",
"_.	c #1D1D1D",
":.	c #4E4E4E",
"<.	c #525252",
"[.	c #565656",
"}.	c #181818",
"|.	c #2E2E2E",
"1.	c #474747",
"2.	c #494949",
"3.	c #4F4F4F",
"4.	c #202020",
"5.	c #393939",
"6.	c #232323",
"7.	c #272727",
"8.	c #454545",
"9.	c #7A7A7A",
"0.	c #C2C2C2",
"a.	c #C0C0C0",
"b.	c #BCBCBC",
"c.	c #BEBEBE",
"d.	c #CBCBCB",
"e.	c #C6C6C6",
"f.	c #B3B3B3",
"g.	c #212121",
"h.	c #262626",
"i.	c #414141",
"j.	c #C3C3C3",
"k.	c #2B2B2B",
"l.	c #2A2A2A",
"m.	c #585858",
"n.	c #C4C4C4",
"o.	c #D1D1D1",
"p.	c #CFCFCF",
"q.	c #2D2D2D",
"r.	c #D9D9D9",
"s.	c #DCDCDC",
"t.	c #D4D4D4",
"u.	c #C7C7C7",
"v.	c #C5C5C5",
"w.	c #767676",
"x.	c #050505",
"y.	c #171717",
"z.	c #2F2F2F",
"A.	c #DEDEDE",
"B.	c #161616",
"C.	c #242424",
"D.	c #4B4B4B",
"E.	c #C8C8C8",
"F.	c #131313",
"G.	c #111111",
"H.	c #484848",
"I.	c #C9C9C9",
"J.	c #ECECEC",
"K.	c #D3D3D3",
"L.	c #C1C1C1",
"M.	c #D0D0D0",
"N.	c #CDCDCD",
"O.	c #CECECE",
"P.	c #1B1B1B",
"Q.	c #101010",
"R.	c #1F1F1F",
"S.	c #464646",
"T.	c #CACACA",
"U.	c #D7D7D7",
"V.	c #D6D6D6",
"W.	c #E5E5E5",
"X.	c #222222",
"Y.	c #1E1E1E",
"Z.	c #2C2C2C",
"`.	c #373737",
" +	c #4A4A4A",
".+	c #DADADA",
"++	c #EEEEEE",
"@+	c #D5D5D5",
"#+	c #E1E1E1",
"$+	c #E2E2E2",
"%+	c #CCCCCC",
"&+	c #060606",
"*+	c #0F0F0F",
"=+	c #303030",
"-+	c #E0E0E0",
";+	c #EBEBEB",
">+	c #D2D2D2",
",+	c #DFDFDF",
"'+	c #DDDDDD",
")+	c #EAEAEA",
"!+	c #E4E4E4",
"~+	c #252525",
"{+	c #E8E8E8",
"]+	c #D8D8D8",
"^+	c #0E0E0E",
"/+	c #E3E3E3",
"(+	c #F0F0F0",
"_+	c #383838",
":+	c #3D3D3D",
"<+	c #404040",
"[+	c #DBDBDB",
"}+	c #555555",
"|+	c #3C3C3C",
"1+	c #282828",
"2+	c #424242",
"3+	c #080808",
"4+	c #141414",
"5+	c #000000",
"6+	c #070707",
"7+	c #020202",
"8+	c #323232",
"9+	c #363636",
"0+	c #040404",
"a+	c #151515",
"b+	c #333333",
"c+	c #0A0A0A",
"d+	c #3A3A3A",
"e+	c #353535",
"f+	c #030303",
"g+	c #0D0D0D",
"h+	c #090909",
"i+	c #010101",
"j+	c #0C0C0C",
"k+	c #0B0B0B",
"l+	c #121212",
"m+	c #1C1C1C",
"n+	c #191919",
"                                                                                                                              ",
"                                                                                                                              ",
"                                                    . + @ # $ % & & * = - ;                                                   ",
"                                                > @ , ' ) , ! ~ { ] ^ / ( ( _ :                                               ",
"                                            < [ } | 1 2 3 4 5 5 6 7 8 9 0 a ( b c d                                           ",
"                                          e f } 4 g g h i j | | 4 ) a 9 k ~ ^ / 9 l m n                                       ",
"                                    o p q r s t j 2 ) u v j w g h } x y y y , k ~ b 9 ] z                                     ",
"                                  A B C - 9 ) D E 7 E F u | D G a ' 7 5 5 D ) y 3 ) } H I                                     ",
"                              J K L M n N ^ a ! ! 8 ' E 3 O P Q 9 ~ 0 ' R v 8 , i 2 S G / T U V                               ",
"                            W X Y Z & + # @ @ m / ! 6 y ` ) 0 ] b  ...F D 6 } a +.@.#.$.~ ( m m Z                             ",
"                          K %.$ - &.; d r ^ , E 4 4 E ` Q x *.T  .! l Q 3 P l 0 y i =.-.E 9 k *./ Y                           ",
"                      W X C &.z B ;.- ] H ..+.2 $.#.j 0 0 s k l ( / ] ! S y ..! ~ k D @.+.>.l b ^ - .                         ",
"                    W C L & &.,.L N k l s G , | #.'.).2 7 E 8 H !.@ T ~ t R 3 Q s ) G 5 O E ..9 I ~.{.].                      ",
"                  ^.X % U $ = m ~ Q l !.>.P h 2 ).@.).1 D ) Q b !.c !.l i $.S P ` S S u P 7 G , a k ( @ /.                    ",
"                (.J X C &.+ ] , 7 P ( *.s G t j g '.=.w u ' ` G x 0 y h 2 =.y y F h j 3 4 +.v E ` E v 8 {                     ",
"                _.A :.<.[.n # m m l !.~ 8 } s 4 | h F D ` >.v | S +.2 S t ` k >.E s 4 u 3 | 2 j j t j D ' ^                   ",
"              }.|.1.2.3.&.& &./.# { ^ 9 l 8 k s i h O h S +.` t j v ) y t E } ..' 8 O E 4 v i +.t g R 4 6 x _                 ",
"              4.5.< e n * ;.[.; {.!.b !.^ k G i O h t 2 1 R 7 E s @ k +.@.R F Q s F v 5 v D O 4 +.u >.0 G G l L               ",
"            6.7.K 8.[.U U L z * ]./ 9.].r 9.b Q ....y #.0.a.j ) ^ ^ } u ).j 5 y Q G u 6 ' G D b.2 $.c.b.2 @.7 {.              ",
"            ^.J 8.q [ f & 3.& f /.I _ I @ ( , ' ) x *./ E d.e.4  . .>.P R f.| i E x x P ' Q P g u F S f.+.'.5 T &.            ",
"          g.h.i.e %.Y - {.M U f d c 0 0 ! *.T ' ` Q ) ) P O R 2 7 ! , x i a.j.1 t u s 4 O F ) D w @.$.E 5 f.3 / -             ",
"          k.l.8.,.: # T r ; m.& !.H Q 7 0 m T / k Q 7 G 7 O t '.+.` ` O n.o.p.p.j.1 f.g $.g 1 f.j 2 O 3 1 g 2 , !.&.          ",
"          g.q.;.9.9.c I : L [ I } a 8 >.( T b 9 ~ ' F P 3 '.n.a.j | $.).r.s.s.t.u.#.2 R 2 j.v.-.| 5 u | v.'.#.E 9 w.          ",
"        x.y.z.; / w.& [ % # H ' ) 9 ( k *. .>., l k F y | w ).c.v.a.0.a.'.-.A.o.a.5 E 6 u c.v.#.f.v P S '.f.@.i  .^           ",
"        (.B.C.[.% D.X n w.8 v 3 u ..H Q Q ! ..F , } ~ 6 w r.u.#.u.v.c.R 3 3 2 e.).1 F F R a.E.e.'.+.P | -.w f.R 9 / N         ",
"        F.G.C.A H.e &.I 9 ..` 5 P ) E >.' ..y v G H / u I.J.K.a.E.n.L.#.n.S f.e.@.b.b.u.M.N.O.v.a.'.R g j.v.n.=.` ^ _         ",
"        P.Q.R.o S.[.. T  .*.*.a ) P P 4 v E | R ` ! 4 M.w K.s.s.t.M.T.U.V.u.v.e.w =.K.W.s.U.K.d.j.j j ).e.I.n.=.v _ { &.      ",
"        X.Y.Z.`. +<.3.~./ ] ( ^ a x s Q u E 6 =.f.O 1 e.=.x e..+J.++.+I.@+u.c.'.#.d.#+$+A.s.V.t.p.v.L.j.v.%+0.h >.^ _ &.      ",
"      &+*+h.=+W [.C U w.{ ] *.! } >.6 ` ( !.l =.@.).K.@.D 7 a.#+-+;+W.>+v.-.@.w n.A.-+,+'+s.)+!+.+d.p.K.I.u.w G s ( - ;       ",
"        B.~+`.D.S.%.d T m c l 8 9 r 9 ( 7 P ' v @.'.d.T.G j K.{+]+K.%+w $.1 ).).0.I.O.>+r.t.,+J.)+U.%+T.v.L.g Q y c * Z       ",
"      ^+~+k.p [ z L w.].T 9 0 9 ( 9.9.T v g 2 ` f.L.=.$.S I.$+/+t.e.-.=.| 2 #.n.w c.u.n.w M.]+(+/+.+o.-.n.c.R ' , r L L       ",
"      x.X._+> U $ ; { { ] H ! *.c # N ' x 4 s  .3 w @.'.%+p.t.N.g D F 6 3 L.p.u.p.t.u.v.N.s.J.#+j.I.O.n.I.g 2 R u /.% [.:+    ",
"        g.<+L U ; /.] !.H  .! b I c d @ { ..Q @ >.4 4 u.@+v.n.g h f.c.n.$.).u.e.T.[+o.).p.@+r.]+u.a.).@.=.S $.O >.n [ e 5.    ",
"        ^.1.2.,.; 9.( ! ! 9 ~ ^ {.N !.9._ !  .!.] Q ! 2 M.0.'.5 i j.O.T.).@.).U.c.u.>+).t.K.V.K.e.0.v.j.).S f.P 9 ,.[. +5.    ",
"        k.<.D.}+[ { k ( ! ( / H = % d { b 0 9 9 ` h +.D %+I.c.| =.T.N.K.0.]+u.u.o.N.W.>+'.1 N.p.E.#.@.L.@.i u ) !.}+:.q       ",
"        l.< :+|+|+L / / { ]  .c d n : m ~ 0 , / ` g $.S g 4 2 =.u.O.).V.-.E.c.a.d.K.V.U.n.E.T.n.n.c.t j , x 7 s + D.3.X       ",
"        =+S.W z.h.5.+ T !.T k *.{.& : ~.9 , ) ` | n.O.e.S k ..| -.u.).r.).#.-.R c.).G x | 2 u R w t =.7 S Q a = A D.C ,.      ",
"        6.K K :+1+X.}+f - T r { d n : - ] 7 D t $.O.[+d.-.7 u @.f.+.h ).a.).2 O 1 g +.x +.u ) _ , ] ) ~ *.} w.2+_+> M [       ",
"        _.^.<+K Z.B.|+M + @ # ~._ # L /._ , '.v..+,+I.e.g ' 7 2 | =.a.e.E.6 } u s 4 f.S ) G h m b G 5 +./ & X p A > L V       ",
"        3+h.q.H._+4+C.i.U : & - - N - = ] l t n.-+M.E.u.5 } , y 7 i c.'.V.E.a.=.6 8 P x 8 } F ' ` ^ ..F { [ C 8.& w.* e       ",
"        5+6+g.< |+R.y.^.1.> [.C - {.~.].I b k l =.N.'.j 6 , 9 ! ! 7 a.N.K.4 6 j.$.F } 7 E.o.Q / ..Q f ^ $ [.<+<.d T = :+      ",
"          7+P.8+<+_.}.7.:+p %.+ ].w.@ * ].G 7 2 O f.).| ` 0 k >.P v c.j.| } G u i D i D $.1 P ^ ( ] _ !.& 9+A M ].T ;.8+      ",
"          5+0+6.4.a+y.o S.< <+%.f ~.$ c N _ ~ '.L.! D ) Q ! s y t '.-.P / H c ] r ..` Q 0 , T c ..P * H.9+H.V & r &.|+b+      ",
"          5+5+c+P.*+3+g.9+p D.B M @ k a w.# !.i f.b / *.I m E f.F 3 0 ; V * m.B . * f $ * $ @ 9.Y D.d+<+3.; + * % 9+e+^.      ",
"          5+5+5+f+g+&+F._+<+;.% w.8 ! 8 I &.U 8 D G = !.^  .m  .( + ; { U 3.2.X > Y + T *./.r n X <+J d+ +1.% ,.b+W e+        ",
"            5+5+5+f+h+x.C.b+H.V [ f l , ..].& m / 0 b ^ >.a ' f % . . + & d C 1. +[ w.w.V Z . 8.[ [ <. +B D.W 7.5.:+C.        ",
"            i+3+f+5+j+c+B.d+;.% &.; I a H ( w.r ~.( T  .x k 7 9.: m.[ Y w./.+ f @ /._ 9 w.= + {.; 2.d+<+`.J l.d+m.8.          ",
"            5+j+4+6+7+^+^+h.e * ; /.k 7 9 T {.{.@ ^ N @ ` a $ : * : { m & - I {.& + = # I - ] ^ ,. +W b+8. +%.d }+A           ",
"              f+*+}.6+3+4+a+e+z + r 9.m c f : Z {.9.^ I r f : U M & & = @ Z L U + {.9.c T c 9.U S.B z Z * _ r U @ 2.          ",
"                7+c+c+f+k+j+B.A n w.7 u _ = e m.* # n # + w.% ,.;.<.Y = [ + ; ~.f N d /.= $ V :.- + $ : *.c U M V             ",
"                  5+i+i+i+x.6+F.e+q d !.k ] n ;.B U ,.% n ( ].z $ . & c # ].+ m T L L !.,.3.B + # M }+U m.;.Y W y.            ",
"                      5+7+x.c+c+B.g.%.Y # [ m.q <.3.z n C ,.& z ,.Z w.N - {.& /.] U n f M D.% m # C M z &.r 5.l+              ",
"                        i+j+y.F.l+g.W }+; ; V D.q  +3.&.U C C [.[.*., c ] * ~.d @ *.^ w.w.].$ f > {.+ w.9.%.m+                ",
"                          f+y.P.(.6.p . n Z ;.> X %.[ C ].+ }+e Z !.].{.* Z }+M /./.@ # n C z %.m.. Z & H.Z.                  ",
"                          5+x.g+}.Q.1+_+S.}+M V . }+U B > :.`.8.[ n ,.n M ,.%.M Z : /.n * ; ~./.B . U [.k.                    ",
"                            h+3+c+k+P.K 2+H.C M %.% f U e 2.1.U X  +D.C M $ ,.e ].N [ # w.{ } Y %.;.H.C.                      ",
"                              i+i+x.i+4.=+1.1.D.m.X 2+S.|+3.[.3.S.L < D.<.C V % @ f ; l , 0 Y z C _+}.                        ",
"                                  5+5+x.4+|._+e+:+8.<+p 5.d+<  +:.;.8.2+> m.. 9.; {.c / $ d+g.q.C.B.                          ",
"                                      5+i+a+~+=+b+W p i.> D.X &.3.L H.5.W H.<+3.n # [ W m+y.C.h.a+                            ",
"                                          5+f+G.h.=+l.d+_+X S.i.D.< V ,.m.<.L % > =+l+0+P.9+q.G.                              ",
"                                            i+c+n+C.o 8+i.o |.A J 9+e+d+:+3.`._.j+7+7+*+y.Q.c+3+                              ",
"                                            5+i+l+^+4.8+e+3.L |+K `.:+S.H.8+l+7+7+0+i+i+i+i+f+                                ",
"                                              i+i+i+^+^+_.e+p  +d+K 1.h.}.f+h+6+g+x.i+5+5+i+                                  ",
"                                                5+5+5+5+x.j+4+y.g.G.0+7+0+7+7+h+x.5+5+5+                                      ",
"                                                    5+5+5+7+i+i+7+7+i+5+i+6+4+                                                ",
"                                                                                                                              ",
"                                                                                                                              ",
"                                                                                                                              "};
