/* XPM */
static xpm_string_t B_xpm[] = {
"21 22 58 1",
" 	c None",
".	c #000000",
"+	c #474747",
"@	c #FFFFFF",
"#	c #FEFEFE",
"$	c #F9F9F9",
"%	c #EBEBEB",
"&	c #CECECE",
"*	c #8A8A8A",
"=	c #D7D7D7",
"-	c #353535",
";	c #D5D5D5",
">	c #F5F5F5",
",	c #1C1C1C",
"'	c #515151",
")	c #949494",
"!	c #E3E3E3",
"~	c #767676",
"{	c #262626",
"]	c #E9E9E9",
"^	c #B1B1B1",
"/	c #B8B8B8",
"(	c #BEBEBE",
"_	c #AEAEAE",
":	c #222222",
"<	c #E8E8E8",
"[	c #828282",
"}	c #161616",
"|	c #4F4F4F",
"1	c #929292",
"2	c #E1E1E1",
"3	c #E0E0E0",
"4	c #D9D9D9",
"5	c #454545",
"6	c #C5C5C5",
"7	c #555555",
"8	c #FCFCFC",
"9	c #A6A6A6",
"0	c #3B3B3B",
"a	c #BBBBBB",
"b	c #FAFAFA",
"c	c #AAAAAA",
"d	c #888888",
"e	c #F7F7F7",
"f	c #383838",
"g	c #E6E6E6",
"h	c #ADADAD",
"i	c #E7E7E7",
"j	c #898989",
"k	c #757575",
"l	c #F4F4F4",
"m	c #9A9A9A",
"n	c #9F9F9F",
"o	c #FBFBFB",
"p	c #F2F2F2",
"q	c #DCDCDC",
"r	c #B0B0B0",
"s	c #4D4D4D",
"..+@@@@@@@#$%&*......",
"..+@@@@@@@@@@@@=-....",
"..+@@@@@@@@@@@@@;....",
"..+@@>....,')!@@@~...",
"..+@@>.......{]@@^...",
"..+@@>......../@@(...",
"..+@@>......../@@_...",
"..+@@>.......:<@@[...",
"..+@@>....}|12@@3....",
"..+@@@@@@@@@@@@45....",
"..+@@@@@@@@@@@67.....",
"..+@@@@@@@@@@@@89....",
"..+@@>.....0~ab@@c...",
"..+@@>........d@@ef..",
"..+@@>.........g@@1..",
"..+@@>.........=@@h..",
"..+@@>.........i@@c..",
"..+@@>........j@@@*..",
"..+@@>.....fkab@@l:..",
"..+@@@@@@@@@@@@@@m...",
"..+@@@@@@@@@@@@en....",
"..+@@@@@@@@opqrs....."};
