/* XPM */
static xpm_string_t C_xpm[] = {
"21 22 69 1",
" 	c None",
".	c #000000",
"+	c #515151",
"@	c #ACACAC",
"#	c #D6D6D6",
"$	c #EEEEEE",
"%	c #F7F7F7",
"&	c #FDFDFD",
"*	c #F6F6F6",
"=	c #EAEAEA",
"-	c #CECECE",
";	c #9C9C9C",
">	c #2E2E2E",
",	c #353535",
"'	c #C1C1C1",
")	c #FAFAFA",
"!	c #FFFFFF",
"~	c #B4B4B4",
"{	c #5C5C5C",
"]	c #E7E7E7",
"^	c #9B9B9B",
"/	c #3D3D3D",
"(	c #ECECEC",
"_	c #EFEFEF",
":	c #7D7D7D",
"<	c #4F4F4F",
"[	c #222222",
"}	c #494949",
"|	c #707070",
"1	c #A3A3A3",
"2	c #D1D1D1",
"3	c #FBFBFB",
"4	c #D0D0D0",
"5	c #BBBBBB",
"6	c #1C1C1C",
"7	c #454545",
"8	c #949494",
"9	c #B5B5B5",
"0	c #CBCBCB",
"a	c #E6E6E6",
"b	c #0D0D0D",
"c	c #F0F0F0",
"d	c #A1A1A1",
"e	c #585858",
"f	c #555555",
"g	c #F5F5F5",
"h	c #909090",
"i	c #EDEDED",
"j	c #5A5A5A",
"k	c #717171",
"l	c #B3B3B3",
"m	c #FEFEFE",
"n	c #B8B8B8",
"o	c #161616",
"p	c #C0C0C0",
"q	c #404040",
"r	c #7A7A7A",
"s	c #4B4B4B",
"t	c #474747",
"u	c #6E6E6E",
"v	c #A2A2A2",
"w	c #5F5F5F",
"x	c #E8E8E8",
"y	c #383838",
"z	c #C3C3C3",
"A	c #535353",
"B	c #ADADAD",
"C	c #D7D7D7",
"D	c #F8F8F8",
".......+@#$%&*=-;>...",
".....,')!!!!!!!!!%~>.",
"....{]!!!!!!!!!!!!!^.",
".../(!!!_~:<[}|123!^.",
"...4!!!56........7'8.",
"..|!!!9..............",
"..0!!ab..............",
"..c!!d...............",
".e!!!f...............",
".:!!g................",
".h!!i................",
".h!!i................",
".:!!g................",
".j!!!f...............",
"..c!!d...............",
"..0!!a...............",
"..k!!!l..............",
"...2!!mno........7p8.",
"...qi!!!$lrs[tuv23!^.",
"....wx!!!!!!!!!!!!!^.",
".....yz3!!!!!!!!!*~>.",
".......ABC$D&%=-^>..."};
