/* XPM */
static xpm_string_t D_xpm[] = {
"21 22 52 1",
" 	c None",
".	c #000000",
"+	c #474747",
"@	c #FFFFFF",
"#	c #FCFCFC",
"$	c #F6F6F6",
"%	c #EEEEEE",
"&	c #DEDEDE",
"*	c #C2C2C2",
"=	c #9A9A9A",
"-	c #2E2E2E",
";	c #F7F7F7",
">	c #C4C4C4",
",	c #404040",
"'	c #F0F0F0",
")	c #808080",
"!	c #F5F5F5",
"~	c #161616",
"{	c #454545",
"]	c #636363",
"^	c #959595",
"/	c #F4F4F4",
"(	c #6C6C6C",
"_	c #262626",
":	c #BDBDBD",
"<	c #FEFEFE",
"[	c #E8E8E8",
"}	c #AFAFAF",
"|	c #969696",
"1	c #E2E2E2",
"2	c #D8D8D8",
"3	c #999999",
"4	c #0D0D0D",
"5	c #494949",
"6	c #686868",
"7	c #818181",
"8	c #EBEBEB",
"9	c #949494",
"0	c #ECECEC",
"a	c #939393",
"b	c #4B4B4B",
"c	c #9B9B9B",
"d	c #D7D7D7",
"e	c #BCBCBC",
"f	c #E7E7E7",
"g	c #424242",
"h	c #626262",
"i	c #696969",
"j	c #7E7E7E",
"k	c #C3C3C3",
"l	c #EFEFEF",
"m	c #DFDFDF",
".+@@@@@@#$%&*=-......",
".+@@@@@@@@@@@@;>,....",
".+@@@@@@@@@@@@@@')...",
".+@@!...~{]^*/@@@;(..",
".+@@!........_:<@@[..",
".+@@!..........}@@@|.",
".+@@!...........1@@2.",
".+@@!...........3@@;4",
".+@@!...........5@@@6",
".+@@!............/@@7",
".+@@!............8@@9",
".+@@!............0@@a",
".+@@!............/@@7",
".+@@!...........b@@@6",
".+@@!...........c@@$4",
".+@@!...........1@@d.",
".+@@!..........}@@@9.",
".+@@!........_e<@@f..",
".+@@!...4gh9*/@@@$i..",
".+@@@@@@@@@@@@@@'j...",
".+@@@@@@@@@@@@;k,....",
".+@@@@@@#$lm*3-......"};
