/* XPM */
static xpm_string_t E_xpm[] = {
"21 22 8 1",
" 	c None",
".	c #000000",
"+	c #474747",
"@	c #FFFFFF",
"#	c #E3E3E3",
"$	c #F5F5F5",
"%	c #989898",
"&	c #323232",
"...+@@@@@@@@@@@@@#...",
"...+@@@@@@@@@@@@@#...",
"...+@@@@@@@@@@@@@#...",
"...+@@$..............",
"...+@@$..............",
"...+@@$..............",
"...+@@$..............",
"...+@@$..............",
"...+@@$..............",
"...+@@@@@@@@@@@@@%...",
"...+@@@@@@@@@@@@@%...",
"...+@@@@@@@@@@@@@%...",
"...+@@$..............",
"...+@@$..............",
"...+@@$..............",
"...+@@$..............",
"...+@@$..............",
"...+@@$..............",
"...+@@$..............",
"...+@@@@@@@@@@@@@@&..",
"...+@@@@@@@@@@@@@@&..",
"...+@@@@@@@@@@@@@@&.."};
