/* XPM */
static xpm_string_t F_xpm[] = {
"21 22 7 1",
" 	c None",
".	c #000000",
"+	c #474747",
"@	c #FFFFFF",
"#	c #BEBEBE",
"$	c #F5F5F5",
"%	c #C8C8C8",
"....+@@@@@@@@@@@@#...",
"....+@@@@@@@@@@@@#...",
"....+@@@@@@@@@@@@#...",
"....+@@$.............",
"....+@@$.............",
"....+@@$.............",
"....+@@$.............",
"....+@@$.............",
"....+@@$.............",
"....+@@@@@@@@@@@%....",
"....+@@@@@@@@@@@%....",
"....+@@@@@@@@@@@%....",
"....+@@$.............",
"....+@@$.............",
"....+@@$.............",
"....+@@$.............",
"....+@@$.............",
"....+@@$.............",
"....+@@$.............",
"....+@@$.............",
"....+@@$.............",
"....+@@$............."};
