/* XPM */
static xpm_string_t fireball_xpm[] = {
"28 29 155 2",
"  	c #FFC0CB",
". 	c #FE8D40",
"+ 	c #FFB340",
"@ 	c #FFD643",
"# 	c #FFC441",
"$ 	c #FFB740",
"% 	c #FF9C42",
"& 	c #FFD440",
"* 	c #FFAC41",
"= 	c #FFB841",
"- 	c #FFBD45",
"; 	c #FFAB41",
"> 	c #FFD041",
", 	c #FFB144",
"' 	c #FFBA40",
") 	c #FFBE41",
"! 	c #FFAC42",
"~ 	c #FFBB42",
"{ 	c #FFA841",
"] 	c #FF9441",
"^ 	c #FFAA41",
"/ 	c #FFAE40",
"( 	c #FFAD41",
"_ 	c #FFB445",
": 	c #FF9A40",
"< 	c #FFC741",
"[ 	c #FFA441",
"} 	c #FFA842",
"| 	c #FFB141",
"1 	c #FF9841",
"2 	c #FF9140",
"3 	c #FFAC40",
"4 	c #FFAD40",
"5 	c #FFA041",
"6 	c #FFAE44",
"7 	c #FF8F41",
"8 	c #FFAA42",
"9 	c #FFB641",
"0 	c #FFB842",
"a 	c #FFAE41",
"b 	c #FF8C40",
"c 	c #FF9F40",
"d 	c #FFA440",
"e 	c #FF8E41",
"f 	c #FF9141",
"g 	c #FF9D41",
"h 	c #FFA242",
"i 	c #FFB347",
"j 	c #FFA641",
"k 	c #FFB241",
"l 	c #FF9B40",
"m 	c #FF8C41",
"n 	c #FF9D40",
"o 	c #FF9740",
"p 	c #FF8640",
"q 	c #FF9640",
"r 	c #FF9A41",
"s 	c #FC9540",
"t 	c #FFBA46",
"u 	c #FFAF41",
"v 	c #FFA340",
"w 	c #FF9340",
"x 	c #FFA740",
"y 	c #FFB042",
"z 	c #FF7A40",
"A 	c #FFA840",
"B 	c #FF9941",
"C 	c #FF9041",
"D 	c #FF9D43",
"E 	c #FF8E40",
"F 	c #FF9940",
"G 	c #FF8741",
"H 	c #FFA540",
"I 	c #FFAF40",
"J 	c #FF9440",
"K 	c #FF9543",
"L 	c #FFA743",
"M 	c #FF8540",
"N 	c #FF8D41",
"O 	c #FF9B41",
"P 	c #FFA640",
"Q 	c #FF9D46",
"R 	c #FF9C40",
"S 	c #FF9C41",
"T 	c #FFA442",
"U 	c #FF6340",
"V 	c #FF9B42",
"W 	c #FF8343",
"X 	c #FF9E43",
"Y 	c #FF9842",
"Z 	c #FF9E40",
"` 	c #FFB041",
" .	c #FF9040",
"..	c #FF5640",
"+.	c #FF5F40",
"@.	c #FF9242",
"#.	c #FF8941",
"$.	c #FFBD40",
"%.	c #FFA744",
"&.	c #FFA140",
"*.	c #FF5A40",
"=.	c #FF5C40",
"-.	c #FF8841",
";.	c #FF8440",
">.	c #FF8840",
",.	c #FF9F45",
"'.	c #FF9840",
").	c #FFB640",
"!.	c #FF8F40",
"~.	c #FF6740",
"{.	c #FF6540",
"].	c #FF8140",
"^.	c #FF7940",
"/.	c #FF8A40",
"(.	c #FF7340",
"_.	c #FFA240",
":.	c #FF4A40",
"<.	c #FF4040",
"[.	c #FF7E40",
"}.	c #FF8B40",
"|.	c #FF8740",
"1.	c #FFA040",
"2.	c #FF6F40",
"3.	c #FF8040",
"4.	c #FF5940",
"5.	c #FF4640",
"6.	c #FF7240",
"7.	c #FF7440",
"8.	c #FF4E40",
"9.	c #FF8940",
"0.	c #FF7740",
"a.	c #FF8240",
"b.	c #FFB140",
"c.	c #FF6D40",
"d.	c #FF5740",
"e.	c #FF8D40",
"f.	c #FF7840",
"g.	c #FF7D40",
"h.	c #FF6940",
"i.	c #FF6B40",
"j.	c #FF4940",
"k.	c #FF4740",
"l.	c #FF4B40",
"m.	c #FF5D40",
"n.	c #FF4140",
"o.	c #FF6140",
"p.	c #FFB240",
"q.	c #FF7540",
"r.	c #FF6040",
"s.	c #FF4240",
"t.	c #FF5040",
"u.	c #FF5540",
"v.	c #FF4C40",
"w.	c #FE5F40",
"x.	c #FF4D40",
"                                                        ",
"                      . + @ # $ %                       ",
"                    & * = - ; # > ,                     ",
"                  ' ) ! ~ { ] ^ / ( _                   ",
"                : < [ } | 1 2 3 4 5 6 7                 ",
"                8 9 0 : a b c d e f g h                 ",
"                i j k l m n 2 o p q r !                 ",
"              s t u j v 7 4 w d w x } y z               ",
"                d A g : B ( 4 j C l D j                 ",
"                E F { q G H I J K F L L                 ",
"                M n a d N O P q Q R S T                 ",
"                U f V j W X v J Y Z `  ...              ",
"                +.@.#.$.e %.x  .n &.a A *.              ",
"                =.-.;.+ >.,.'.o '.H ).!.~.              ",
"                {.2 ].2 ^./.(.b _.R q :.<.              ",
"                [.}.|.1.z ^.2.z q ;.3.<.                ",
"                4.5.6.q |.7.M z R E  .8.                ",
"                    =.z !.9.0.a.c b.0.c.                ",
"                    d.|.A e.f.g.F 0.<.=.                ",
"                    *.2 ].P 3.^.H =.  <.                ",
"                    =.U h.: M i.].j.                    ",
"                  k.l.<.m.E d P x :.                    ",
"                  n.    o.p.l &.U q.                    ",
"                        d.e.*.r.  l.s.                  ",
"                        t.+.<.~.    <.                  ",
"                        u.v.  w.                        ",
"                          x.                            ",
"                                                        ",
"                                                        "};
