/* XPM */
static xpm_string_t G_xpm[] = {
"21 22 74 1",
" 	c None",
".	c #000000",
"+	c #494949",
"@	c #A8A8A8",
"#	c #D2D2D2",
"$	c #ECECEC",
"%	c #F6F6F6",
"&	c #FDFDFD",
"*	c #F9F9F9",
"=	c #F0F0F0",
"-	c #DBDBDB",
";	c #BDBDBD",
">	c #7C7C7C",
",	c #323232",
"'	c #C0C0C0",
")	c #FFFFFF",
"!	c #EDEDED",
"~	c #A3A3A3",
"{	c #1C1C1C",
"]	c #5F5F5F",
"^	c #E7E7E7",
"/	c #818181",
"(	c #404040",
"_	c #F1F1F1",
":	c #B9B9B9",
"<	c #868686",
"[	c #565656",
"}	c #2E2E2E",
"|	c #3B3B3B",
"1	c #5C5C5C",
"2	c #8A8A8A",
"3	c #B4B4B4",
"4	c #E3E3E3",
"5	c #FEFEFE",
"6	c #BBBBBB",
"7	c #686868",
"8	c #D0D0D0",
"9	c #7D7D7D",
"0	c #727272",
"a	c #B2B2B2",
"b	c #CCCCCC",
"c	c #E5E5E5",
"d	c #9F9F9F",
"e	c #5A5A5A",
"f	c #535353",
"g	c #F5F5F5",
"h	c #909090",
"i	c #515151",
"j	c #696969",
"k	c #E4E4E4",
"l	c #737373",
"m	c #B0B0B0",
"n	c #D3D3D3",
"o	c #B8B8B8",
"p	c #EFEFEF",
"q	c #B7B7B7",
"r	c #838383",
"s	c #262626",
"t	c #2A2A2A",
"u	c #828282",
"v	c #E8E8E8",
"w	c #EEEEEE",
"x	c #7A7A7A",
"y	c #353535",
"z	c #F8F8F8",
"A	c #BEBEBE",
"B	c #3D3D3D",
"C	c #4B4B4B",
"D	c #A9A9A9",
"E	c #D4D4D4",
"F	c #F7F7F7",
"G	c #D1D1D1",
"H	c #A4A4A4",
"I	c #424242",
".......+@#$%&*=-;>...",
".....,'*))))))))))!~{",
"....]^))))))))))))))/",
"...(!)))_:<[}|1234))/",
"...#))56{.........789",
"..0)))a..............",
"..b))c...............",
"..=))d...............",
".e)))f...............",
".9))g................",
".h))!........5))))))c",
".h))!........5))))))c",
".9))g........5))))))c",
".e)))i...........j))c",
"..=))d...........j))c",
"..b))k...........j))c",
"..l)))m..........j))c",
"...n))5o{........j))c",
"...(!)))pqrfstiu;$))c",
"....]v)))))))))))))wx",
".....y'*)))))))))zAB.",
".......CDE!%&F$GHI..."};
