/* XPM */
static xpm_string_t H_xpm[] = {
"21 22 7 1",
" 	c None",
".	c #000000",
"+	c #474747",
"@	c #FFFFFF",
"#	c #F5F5F5",
"$	c #9F9F9F",
"%	c #CDCDCD",
"..+@@#..........$@@%.",
"..+@@#..........$@@%.",
"..+@@#..........$@@%.",
"..+@@#..........$@@%.",
"..+@@#..........$@@%.",
"..+@@#..........$@@%.",
"..+@@#..........$@@%.",
"..+@@#..........$@@%.",
"..+@@#..........$@@%.",
"..+@@@@@@@@@@@@@@@@%.",
"..+@@@@@@@@@@@@@@@@%.",
"..+@@@@@@@@@@@@@@@@%.",
"..+@@#..........$@@%.",
"..+@@#..........$@@%.",
"..+@@#..........$@@%.",
"..+@@#..........$@@%.",
"..+@@#..........$@@%.",
"..+@@#..........$@@%.",
"..+@@#..........$@@%.",
"..+@@#..........$@@%.",
"..+@@#..........$@@%.",
"..+@@#..........$@@%."};
