/* XPM */
static xpm_string_t I_xpm[] = {
"21 22 5 1",
" 	c None",
".	c #000000",
"+	c #474747",
"@	c #FFFFFF",
"#	c #F5F5F5",
".........+@@#........",
".........+@@#........",
".........+@@#........",
".........+@@#........",
".........+@@#........",
".........+@@#........",
".........+@@#........",
".........+@@#........",
".........+@@#........",
".........+@@#........",
".........+@@#........",
".........+@@#........",
".........+@@#........",
".........+@@#........",
".........+@@#........",
".........+@@#........",
".........+@@#........",
".........+@@#........",
".........+@@#........",
".........+@@#........",
".........+@@#........",
".........+@@#........"};
