/* XPM */
static xpm_string_t J_xpm[] = {
"21 22 38 1",
" 	c None",
".	c #000000",
"+	c #737373",
"@	c #FFFFFF",
"#	c #D6D6D6",
"$	c #262626",
"%	c #6C6C6C",
"&	c #5C5C5C",
"*	c #757575",
"=	c #D4D4D4",
"-	c #5D5D5D",
";	c #FEFEFE",
">	c #BABABA",
",	c #818181",
"'	c #CBCBCB",
")	c #454545",
"!	c #D3D3D3",
"~	c #9B9B9B",
"{	c #B6B6B6",
"]	c #F0F0F0",
"^	c #F8F8F8",
"/	c #D2D2D2",
"(	c #BBBBBB",
"_	c #E6E6E6",
":	c #383838",
"<	c #636363",
"[	c #C7C7C7",
"}	c #DEDEDE",
"|	c #2E2E2E",
"1	c #DFDFDF",
"2	c #E9E9E9",
"3	c #1C1C1C",
"4	c #A7A7A7",
"5	c #F6F6F6",
"6	c #FDFDFD",
"7	c #F5F5F5",
"8	c #E2E2E2",
"9	c #ADADAD",
".....................",
".............+@@#....",
".............+@@#....",
".............+@@#....",
".............+@@#....",
".............+@@#....",
".............+@@#....",
".............+@@#....",
".............+@@#....",
".............+@@#....",
".............+@@#....",
".............+@@#....",
".............+@@#....",
".............+@@#....",
".............+@@#....",
".....$%&.....*@@=....",
"....-;@>.....,@@'....",
"....)@@!.....~@@{....",
".....]@^)..../@@,....",
".....(@@_,:<[@@}.....",
".....|1@@@@@@@2&.....",
"......34156789|......"};
