/* XPM */
static xpm_string_t K_xpm[] = {
"21 22 66 1",
" 	c None",
".	c #000000",
"+	c #474747",
"@	c #FFFFFF",
"#	c #F5F5F5",
"$	c #404040",
"%	c #E2E2E2",
"&	c #F0F0F0",
"*	c #666666",
"=	c #4B4B4B",
"-	c #E6E6E6",
";	c #ECECEC",
">	c #5A5A5A",
",	c #565656",
"'	c #EBEBEB",
")	c #E8E8E8",
"!	c #4F4F4F",
"~	c #606060",
"{	c #EEEEEE",
"]	c #E3E3E3",
"^	c #454545",
"/	c #6A6A6A",
"(	c #F1F1F1",
"_	c #DDDDDD",
":	c #383838",
"<	c #757575",
"[	c #D7D7D7",
"}	c #2A2A2A",
"|	c #7F7F7F",
"1	c #F7F7F7",
"2	c #D0D0D0",
"3	c #1C1C1C",
"4	c #888888",
"5	c #F9F9F9",
"6	c #C8C8C8",
"7	c #0D0D0D",
"8	c #929292",
"9	c #FBFBFB",
"0	c #C0C0C0",
"a	c #FCFCFC",
"b	c #FDFDFD",
"c	c #B6B6B6",
"d	c #F3F3F3",
"e	c #515151",
"f	c #656565",
"g	c #EAEAEA",
"h	c #4D4D4D",
"i	c #F2F2F2",
"j	c #E9E9E9",
"k	c #686868",
"l	c #494949",
"m	c #696969",
"n	c #E7E7E7",
"o	c #6C6C6C",
"p	c #6D6D6D",
"q	c #F4F4F4",
"r	c #E5E5E5",
"s	c #424242",
"t	c #6E6E6E",
"u	c #707070",
"v	c #E4E4E4",
"w	c #3D3D3D",
"x	c #727272",
"y	c #737373",
"z	c #F6F6F6",
"A	c #3B3B3B",
"..+@@#........$%@@&*.",
"..+@@#.......=-@@;>..",
"..+@@#......,'@@)!...",
"..+@@#.....~{@@]^....",
"..+@@#..../(@@_:.....",
"..+@@#...<#@@[}......",
"..+@@#..|1@@23.......",
"..+@@#.45@@67........",
"..+@@#89@@0..........",
"..+@@ab@@c...........",
"..+@@@@@de...........",
"..+@@5(@@'!..........",
"..+@@#f(@@gh.........",
"..+@@#.*i@@j=........",
"..+@@#..kd@@)l.......",
"..+@@#...md@@n+......",
"..+@@#....od@@-^.....",
"..+@@#.....pq@@rs....",
"..+@@#......t#@@r$...",
"..+@@#.......u#@@vw..",
"..+@@#........x#@@]w.",
"..+@@#.........yz@@%A"};
