/* XPM */
static xpm_string_t L_xpm[] = {
"21 22 6 1",
" 	c None",
".	c #000000",
"+	c #474747",
"@	c #FFFFFF",
"#	c #F5F5F5",
"$	c #C4C4C4",
"...+@@#..............",
"...+@@#..............",
"...+@@#..............",
"...+@@#..............",
"...+@@#..............",
"...+@@#..............",
"...+@@#..............",
"...+@@#..............",
"...+@@#..............",
"...+@@#..............",
"...+@@#..............",
"...+@@#..............",
"...+@@#..............",
"...+@@#..............",
"...+@@#..............",
"...+@@#..............",
"...+@@#..............",
"...+@@#..............",
"...+@@#..............",
"...+@@@@@@@@@@@@@$...",
"...+@@@@@@@@@@@@@$...",
"...+@@@@@@@@@@@@@$..."};
