/* XPM */
static xpm_string_t M_xpm[] = {
"21 22 66 1",
" 	c None",
".	c #474747",
"+	c #FFFFFF",
"@	c #C2C2C2",
"#	c #000000",
"$	c #D2D2D2",
"%	c #FAFAFA",
"&	c #F3F3F3",
"*	c #1C1C1C",
"=	c #3D3D3D",
"-	c #FBFBFB",
";	c #FEFEFE",
">	c #909090",
",	c #A6A6A6",
"'	c #EAEAEA",
")	c #F2F2F2",
"!	c #E0E0E0",
"~	c #E4E4E4",
"{	c #F8F8F8",
"]	c #E9E9E9",
"^	c #C1C1C1",
"/	c #404040",
"(	c #626262",
"_	c #AAAAAA",
":	c #707070",
"<	c #BABABA",
"[	c #FCFCFC",
"}	c #E7E7E7",
"|	c #EEEEEE",
"1	c #D5D5D5",
"2	c #AEAEAE",
"3	c #838383",
"4	c #949494",
"5	c #4D4D4D",
"6	c #FDFDFD",
"7	c #B9B9B9",
"8	c #CBCBCB",
"9	c #F5F5F5",
"0	c #222222",
"a	c #D8D8D8",
"b	c #2E2E2E",
"c	c #C5C5C5",
"d	c #999999",
"e	c #818181",
"f	c #9D9D9D",
"g	c #787878",
"h	c #2A2A2A",
"i	c #F6F6F6",
"j	c #CACACA",
"k	c #DBDBDB",
"l	c #C8C8C8",
"m	c #F7F7F7",
"n	c #555555",
"o	c #B3B3B3",
"p	c #7E7E7E",
"q	c #9A9A9A",
"r	c #B2B2B2",
"s	c #565656",
"t	c #ECECEC",
"u	c #DCDCDC",
"v	c #B6B6B6",
"w	c #9E9E9E",
"x	c #5D5D5D",
"y	c #323232",
"z	c #DEDEDE",
"A	c #CDCDCD",
".++++@##########$+++%",
".++++&*########=-+++%",
".++;++>########,++;+%",
".++')+$########!+~{+%",
".++]^+-/######(++_{+%",
".++]:++,######<+[.{+%",
".++]#}+!######|+1#{+%",
".++]#2++(####3++4#{+%",
".++]#56+7####8+90#{+%",
".++]##a+|###b{+c##{+%",
".++]##d++e##f++g##{+%",
".++]##hi+j##k+'###{+%",
".++]###l+mhn6+o###{+%",
".++]###p++qr+;s###{+%",
".++]####t+a'+u####{+%",
".++]####v+;++w####{+%",
".++]####x;++{y####{+%",
".++]#####z++A#####{+%",
".++]##############{+%",
".++]##############{+%",
".++]##############{+%",
".++]##############{+%"};
