/* XPM */
static xpm_string_t minus_xpm[] = {
"11 22 4 1",
" 	c None",
".	c #000000",
"+	c #3D3D3D",
"@	c #FFFFFF",
"...........",
"...........",
"...........",
"...........",
"...........",
"...........",
"...........",
"...........",
"...........",
"...........",
".+@@@@@@@@+",
".+@@@@@@@@+",
"...........",
"...........",
"...........",
"...........",
"...........",
"...........",
"...........",
"...........",
"...........",
"..........."};
