/* XPM */
static xpm_string_t N_xpm[] = {
"21 22 53 1",
" 	c None",
".	c #000000",
"+	c #474747",
"@	c #FFFFFF",
"#	c #787878",
"$	c #A5A5A5",
"%	c #BCBCBC",
"&	c #DBDBDB",
"*	c #868686",
"=	c #FBFBFB",
"-	c #E3E3E3",
";	c #E9E9E9",
">	c #DCDCDC",
",	c #939393",
"'	c #0D0D0D",
")	c #D4D4D4",
"!	c #9F9F9F",
"~	c #6A6A6A",
"{	c #FDFDFD",
"]	c #EEEEEE",
"^	c #222222",
"/	c #CCCCCC",
"(	c #AAAAAA",
"_	c #5C5C5C",
":	c #F3F3F3",
"<	c #323232",
"[	c #C4C4C4",
"}	c #B4B4B4",
"|	c #4D4D4D",
"1	c #F9F9F9",
"2	c #F6F6F6",
"3	c #424242",
"4	c #BBBBBB",
"5	c #BDBDBD",
"6	c #3D3D3D",
"7	c #FAFAFA",
"8	c #515151",
"9	c #B1B1B1",
"0	c #C6C6C6",
"a	c #2E2E2E",
"b	c #F1F1F1",
"c	c #FCFCFC",
"d	c #606060",
"e	c #A7A7A7",
"f	c #CECECE",
"g	c #1C1C1C",
"h	c #EDEDED",
"i	c #FEFEFE",
"j	c #C1C1C1",
"k	c #9B9B9B",
"l	c #E7E7E7",
"m	c #8F8F8F",
"n	c #E0E0E0",
"..+@@@@#........$@@%.",
"..+@@@@&........$@@%.",
"..+@@@@@*.......$@@%.",
"..+@@=@@-.......$@@%.",
"..+@@;>@@,......$@@%.",
"..+@@;#@@;'.....$@@%.",
"..+@@;.)@@!.....$@@%.",
"..+@@;.~{@]^....$@@%.",
"..+@@;../@@(....$@@%.",
"..+@@;.._=@:<...$@@%.",
"..+@@;...[@@}...$@@%.",
"..+@@;...|1@23..$@@%.",
"..+@@;....4@@5..$@@%.",
"..+@@;....62@78.$@@%.",
"..+@@;.....9@@0.$@@%.",
"..+@@;.....ab@cd$@@%.",
"..+@@;......e@@f$@@%.",
"..+@@;......gh@ij@@%.",
"..+@@;.......k@@7@@%.",
"..+@@;.......'l@@@@%.",
"..+@@;........m@@@@%.",
"..+@@;.........n@@@%."};
