/* XPM */
static xpm_string_t n0_xpm[] = {
"21 22 64 1",
" 	c None",
".	c #000000",
"+	c #0D0D0D",
"@	c #9F9F9F",
"#	c #DBDBDB",
"$	c #F3F3F3",
"%	c #FCFCFC",
"&	c #F4F4F4",
"*	c #DEDEDE",
"=	c #A6A6A6",
"-	c #1C1C1C",
";	c #4B4B4B",
">	c #E0E0E0",
",	c #FFFFFF",
"'	c #E5E5E5",
")	c #5A5A5A",
"!	c #2A2A2A",
"~	c #E3E3E3",
"{	c #E9E9E9",
"]	c #3D3D3D",
"^	c #B2B2B2",
"/	c #C7C7C7",
"(	c #6D6D6D",
"_	c #2E2E2E",
":	c #656565",
"<	c #BEBEBE",
"[	c #FEFEFE",
"}	c #262626",
"|	c #F6F6F6",
"1	c #B6B6B6",
"2	c #A7A7A7",
"3	c #FBFBFB",
"4	c #454545",
"5	c #919191",
"6	c #EFEFEF",
"7	c #161616",
"8	c #E6E6E6",
"9	c #A1A1A1",
"0	c #C6C6C6",
"a	c #BBBBBB",
"b	c #ADADAD",
"c	c #D1D1D1",
"d	c #DFDFDF",
"e	c #8A8A8A",
"f	c #717171",
"g	c #F2F2F2",
"h	c #5C5C5C",
"i	c #F9F9F9",
"j	c #F1F1F1",
"k	c #494949",
"l	c #929292",
"m	c #A2A2A2",
"n	c #474747",
"o	c #B3B3B3",
"p	c #C0C0C0",
"q	c #E4E4E4",
"r	c #EAEAEA",
"s	c #404040",
"t	c #4F4F4F",
"u	c #E1E1E1",
"v	c #E7E7E7",
"w	c #5D5D5D",
"x	c #DCDCDC",
"y	c #222222",
"......+@#$%&*=-......",
".....;>,,,,,,,').....",
"....!~,,,,,,,,,{]....",
"....^,,,/(_:<[,,<....",
"...}|,,1.....2,,34...",
"...5,,67......8,,9...",
"...0,,a.......b,,c...",
"...d,,e.......f,,{...",
"...g,,h.......![,3...",
"...i,,7........|,,}..",
"...[,%.........j,,k..",
"...[,%.........g,,k..",
"...i,,7........|,,}..",
"...g,,h.......![,3...",
"...d,,e.......f,,{...",
"...0,,a.......b,,c...",
"...l,,67......8,,m...",
"...!|,,1.....2,,3n...",
"....o,,,/(_:<[,,p....",
"...._q,,,,,,,,,rs....",
".....tu,,,,,,,vw.....",
"......+9x&%&d2y......"};
