/* XPM */
static xpm_string_t n1_xpm[] = {
"21 22 20 1",
" 	c None",
".	c #000000",
"+	c #3B3B3B",
"@	c #838383",
"#	c #ADADAD",
"$	c #CDCDCD",
"%	c #E8E8E8",
"&	c #FCFCFC",
"*	c #FFFFFF",
"=	c #B9B9B9",
"-	c #DBDBDB",
";	c #D4D4D4",
">	c #E4E4E4",
",	c #C9C9C9",
"'	c #A8A8A8",
")	c #7D7D7D",
"!	c #B6B6B6",
"~	c #B1B1B1",
"{	c #919191",
"]	c #989898",
"....+@#$%&**=........",
"....-*******=........",
"....-*******=........",
"....;>,')!**=........",
".........~**=........",
".........~**=........",
".........~**=........",
".........~**=........",
".........~**=........",
".........~**=........",
".........~**=........",
".........~**=........",
".........~**=........",
".........~**=........",
".........~**=........",
".........~**=........",
".........~**=........",
".........~**=........",
".........~**=........",
"....{************]...",
"....{************]...",
"....{************]..."};
