/* XPM */
static xpm_string_t n2_xpm[] = {
"21 22 65 1",
" 	c None",
".	c #000000",
"+	c #3D3D3D",
"@	c #8B8B8B",
"#	c #B9B9B9",
"$	c #DBDBDB",
"%	c #EEEEEE",
"&	c #FAFAFA",
"*	c #FEFEFE",
"=	c #F8F8F8",
"-	c #E9E9E9",
";	c #CACACA",
">	c #7E7E7E",
",	c #D4D4D4",
"'	c #FFFFFF",
")	c #D2D2D2",
"!	c #3B3B3B",
"~	c #E0E0E0",
"{	c #161616",
"]	c #CDCDCD",
"^	c #DFDFDF",
"/	c #BEBEBE",
"(	c #949494",
"_	c #767676",
":	c #565656",
"<	c #262626",
"[	c #515151",
"}	c #9B9B9B",
"|	c #AAAAAA",
"1	c #323232",
"2	c #E2E2E2",
"3	c #E3E3E3",
"4	c #F6F6F6",
"5	c #2E2E2E",
"6	c #686868",
"7	c #E1E1E1",
"8	c #BDBDBD",
"9	c #727272",
"0	c #FBFBFB",
"a	c #ECECEC",
"b	c #222222",
"c	c #555555",
"d	c #F0F0F0",
"e	c #4D4D4D",
"f	c #9C9C9C",
"g	c #535353",
"h	c #EAEAEA",
"i	c #9F9F9F",
"j	c #5D5D5D",
"k	c #EDEDED",
"l	c #9E9E9E",
"m	c #696969",
"n	c #F1F1F1",
"o	c #FDFDFD",
"p	c #9D9D9D",
"q	c #757575",
"r	c #F4F4F4",
"s	c #818181",
"t	c #F7F7F7",
"u	c #9A9A9A",
"v	c #FCFCFC",
"w	c #969696",
"x	c #939393",
"y	c #E7E7E7",
"z	c #4F4F4F",
"...+@#$%&*=-;>.......",
"...,'''''''''')!.....",
"...,'''''''''''~{....",
"...]^/(_:<[}-'''|....",
"............12''3....",
".............>''4....",
".............5''4....",
".............6''7....",
".............8''|....",
"............90'ab....",
"...........cd'0_.....",
"..........e-'*f......",
".........gh'*i.......",
"........jk'*l........",
".......mn'op.........",
"......qr'o}..........",
".....st'ou...........",
"....@&'vw............",
"...(0'vx.............",
"...y'''''''''''''z...",
"...y'''''''''''''z...",
"...y'''''''''''''z..."};
