/* XPM */
static xpm_string_t n3_xpm[] = {
"21 22 77 1",
" 	c None",
".	c #000000",
"+	c #656565",
"@	c #A3A3A3",
"#	c #CDCDCD",
"$	c #E5E5E5",
"%	c #F0F0F0",
"&	c #FBFBFB",
"*	c #F1F1F1",
"=	c #DADADA",
"-	c #A7A7A7",
";	c #383838",
">	c #474747",
",	c #FFFFFF",
"'	c #848484",
")	c #767676",
"!	c #454545",
"~	c #EDEDED",
"{	c #C7C7C7",
"]	c #A1A1A1",
"^	c #7D7D7D",
"/	c #5C5C5C",
"(	c #262626",
"_	c #3D3D3D",
":	c #7C7C7C",
"<	c #C1C1C1",
"[	c #FCFCFC",
"}	c #DEDEDE",
"|	c #8F8F8F",
"1	c #FEFEFE",
"2	c #404040",
"3	c #6A6A6A",
"4	c #EBEBEB",
"5	c #4F4F4F",
"6	c #7F7F7F",
"7	c #E8E8E8",
"8	c #353535",
"9	c #727272",
"0	c #B7B7B7",
"a	c #F9F9F9",
"b	c #868686",
"c	c #F8F8F8",
"d	c #E0E0E0",
"e	c #6D6D6D",
"f	c #CBCBCB",
"g	c #2A2A2A",
"h	c #0D0D0D",
"i	c #787878",
"j	c #B9B9B9",
"k	c #F6F6F6",
"l	c #5D5D5D",
"m	c #F2F2F2",
"n	c #AFAFAF",
"o	c #949494",
"p	c #D5D5D5",
"q	c #B5B5B5",
"r	c #A6A6A6",
"s	c #D2D2D2",
"t	c #D4D4D4",
"u	c #626262",
"v	c #222222",
"w	c #515151",
"x	c #888888",
"y	c #C4C4C4",
"z	c #FAFAFA",
"A	c #DDDDDD",
"B	c #FDFDFD",
"C	c #EEEEEE",
"D	c #8A8A8A",
"E	c #979797",
"F	c #C5C5C5",
"G	c #E3E3E3",
"H	c #EFEFEF",
"I	c #F7F7F7",
"J	c #E9E9E9",
"K	c #CFCFCF",
"L	c #989898",
"....+@#$%&&*=-;......",
"...>,,,,,,,,,,*'.....",
"...>,,,,,,,,,,,&)....",
"...!~{]^/(_:<[,,}....",
".............|,,12...",
"..............~,,3...",
"..............4,,5...",
".............6,,7....",
"..........890a,&b....",
".......c,,,,,,~6.....",
".......c,,,,,de......",
".......c,,,,,,,fg....",
".........h2ijk,,=....",
".............lm,,|...",
"..............n,,{...",
"..............o,,p...",
"..............q,,f...",
".............ek,,r...",
"...str^u;vwxyz,,k!...",
"...A,,,,,,,,,,,Bo....",
"...A,,,,,,,,,,CD.....",
"...>EFGHaBIJKL(......"};
