/* XPM */
static xpm_string_t n4_xpm[] = {
"21 22 42 1",
" 	c None",
".	c #000000",
"+	c #0D0D0D",
"@	c #E2E2E2",
"#	c #FFFFFF",
"$	c #919191",
"%	c #ABABAB",
"&	c #5C5C5C",
"*	c #F9F9F9",
"=	c #F7F7F7",
"-	c #DADADA",
";	c #DCDCDC",
">	c #D4D4D4",
",	c #9E9E9E",
"'	c #5F5F5F",
")	c #4D4D4D",
"!	c #F5F5F5",
"~	c #D1D1D1",
"{	c #E1E1E1",
"]	c #909090",
"^	c #FBFBFB",
"/	c #696969",
"(	c #3B3B3B",
"_	c #F1F1F1",
":	c #B4B4B4",
"<	c #C7C7C7",
"[	c #E6E6E6",
"}	c #1C1C1C",
"|	c #818181",
"1	c #FEFEFE",
"2	c #FDFDFD",
"3	c #757575",
"4	c #2A2A2A",
"5	c #ECECEC",
"6	c #BCBCBC",
"7	c #BDBDBD",
"8	c #EBEBEB",
"9	c #727272",
"0	c #FCFCFC",
"a	c #7F7F7F",
"b	c #C0C0C0",
"c	c #C1C1C1",
"..........+@###$.....",
"..........%####$.....",
".........&*#=##$.....",
".........-#;>##$.....",
"........,#*'>##$.....",
".......)!#%.>##$.....",
".......~#{+.>##$.....",
"......]#^/..>##$.....",
".....(_#:...>##$.....",
".....<#[}...>##$.....",
"....|123....>##$.....",
"...45#6.....>##$.....",
"...7#84.....>##$.....",
"..901a......>##$.....",
"..b###############%..",
"..c###############%..",
"..c###############%..",
"............>##$.....",
"............>##$.....",
"............>##$.....",
"............>##$.....",
"............>##$....."};
