/* XPM */
static xpm_string_t n5_xpm[] = {
"21 22 52 1",
" 	c None",
".	c #000000",
"+	c #E3E3E3",
"@	c #FFFFFF",
"#	c #EFEFEF",
"$	c #FAFAFA",
"%	c #FCFCFC",
"&	c #D1D1D1",
"*	c #F1F1F1",
"=	c #F7F7F7",
"-	c #EAEAEA",
";	c #CACACA",
">	c #828282",
",	c #D8D8D8",
"'	c #4F4F4F",
")	c #454545",
"!	c #D4D4D4",
"~	c #C5C5C5",
"{	c #949494",
"]	c #707070",
"^	c #424242",
"/	c #2E2E2E",
"(	c #636363",
"_	c #A1A1A1",
":	c #E5E5E5",
"<	c #0D0D0D",
"[	c #C2C2C2",
"}	c #FDFDFD",
"|	c #474747",
"1	c #161616",
"2	c #EBEBEB",
"3	c #979797",
"4	c #AEAEAE",
"5	c #989898",
"6	c #FEFEFE",
"7	c #494949",
"8	c #CFCFCF",
"9	c #D6D6D6",
"0	c #A9A9A9",
"a	c #7E7E7E",
"b	c #383838",
"c	c #2A2A2A",
"d	c #626262",
"e	c #A0A0A0",
"f	c #E4E4E4",
"g	c #CCCCCC",
"h	c #4B4B4B",
"i	c #D7D7D7",
"j	c #515151",
"k	c #959595",
"l	c #F6F6F6",
"m	c #797979",
"....+@@@@@@@@@@#.....",
"....+@@@@@@@@@@#.....",
"....+@@@@@@@@@@#.....",
"....+@$..............",
"....+@$..............",
"....+@$..............",
"....+@$..............",
"....+@$..............",
"....+@%&*%=-;>.......",
"....+@@@@@@@@@,'.....",
"....+@@@@@@@@@@-)....",
"....!~{]^/(_:@@@;....",
"............<[@@}|...",
".............12@@3...",
"..............~@@4...",
"..............~@@4...",
".............12@@5...",
".............[@@67...",
"...890a(bcdef@@@g....",
"...,@@@@@@@@@@@2h....",
"...,@@@@@@@@@@ij.....",
"...)k~+#$%l:~m......."};
