/* XPM */
static xpm_string_t n6_xpm[] = {
"21 22 77 1",
" 	c None",
".	c #000000",
"+	c #868686",
"@	c #CACACA",
"#	c #ECECEC",
"$	c #F8F8F8",
"%	c #FBFBFB",
"&	c #EEEEEE",
"*	c #DADADA",
"=	c #AAAAAA",
"-	c #565656",
";	c #535353",
">	c #D7D7D7",
",	c #FFFFFF",
"'	c #E5E5E5",
")	c #585858",
"!	c #EDEDED",
"~	c #161616",
"{	c #E4E4E4",
"]	c #D3D3D3",
"^	c #8B8B8B",
"/	c #4D4D4D",
"(	c #222222",
"_	c #909090",
":	c #C9C9C9",
"<	c #AFAFAF",
"[	c #FEFEFE",
"}	c #A1A1A1",
"|	c #F1F1F1",
"1	c #C2C2C2",
"2	c #8E8E8E",
"3	c #424242",
"4	c #BEBEBE",
"5	c #DCDCDC",
"6	c #ABABAB",
"7	c #919191",
"8	c #DDDDDD",
"9	c #F6F6F6",
"0	c #D4D4D4",
"a	c #949494",
"b	c #E9E9E9",
"c	c #838383",
"d	c #C5C5C5",
"e	c #474747",
"f	c #E2E2E2",
"g	c #262626",
"h	c #F2F2F2",
"i	c #FDFDFD",
"j	c #C7C7C7",
"k	c #757575",
"l	c #323232",
"m	c #3D3D3D",
"n	c #ADADAD",
"o	c #A7A7A7",
"p	c #CCCCCC",
"q	c #EBEBEB",
"r	c #494949",
"s	c #CECECE",
"t	c #707070",
"u	c #B1B1B1",
"v	c #6E6E6E",
"w	c #6C6C6C",
"x	c #454545",
"y	c #E8E8E8",
"z	c #E7E7E7",
"A	c #939393",
"B	c #C6C6C6",
"C	c #2E2E2E",
"D	c #3B3B3B",
"E	c #858585",
"F	c #D9D9D9",
"G	c #A3A3A3",
"H	c #CBCBCB",
"I	c #D1D1D1",
"J	c #353535",
"K	c #848484",
"L	c #EFEFEF",
"........+@#$%&*=-....",
"......;>,,,,,,,,'....",
".....)!,,,,,,,,,'....",
"....~{,,,]^/(-_:>....",
"....<,,[}............",
"...~|,,1.............",
"...2,,%3.............",
"...4,,]..............",
"...5,,6.789%|0a......",
"...b,,cd,,,,,,,5e....",
"...|,,d,,,,,,,,,fg...",
"...h,,i[jklm+*,,,n...",
"...#,,,o......p,,q...",
"...{,,#.......ri,,r..",
"...s,,s........q,,t..",
"...u,,s........q,,v..",
"...w,,#.......ri,,x..",
"....y,,o......p,,z...",
"....A,,[BkCDEF,,,G...",
".....s,,,,,,,,,,F~...",
".....(H,,,,,,,,IJ....",
".......KsL%%&sK......"};
