/* XPM */
static xpm_string_t n7_xpm[] = {
"21 22 49 1",
" 	c None",
".	c #000000",
"+	c #C1C1C1",
"@	c #FFFFFF",
"#	c #AFAFAF",
"$	c #FCFCFC",
"%	c #4F4F4F",
"&	c #848484",
"*	c #D6D6D6",
"=	c #CFCFCF",
"-	c #939393",
";	c #424242",
">	c #FBFBFB",
",	c #F3F3F3",
"'	c #1C1C1C",
")	c #ABABAB",
"!	c #BFBFBF",
"~	c #E8E8E8",
"{	c #696969",
"]	c #797979",
"^	c #E2E2E2",
"/	c #CACACA",
"(	c #A4A4A4",
"_	c #383838",
":	c #F8F8F8",
"<	c #F9F9F9",
"[	c #A5A5A5",
"}	c #CCCCCC",
"|	c #E3E3E3",
"1	c #818181",
"2	c #707070",
"3	c #ECECEC",
"4	c #C4C4C4",
"5	c #B4B4B4",
"6	c #2A2A2A",
"7	c #F6F6F6",
"8	c #FDFDFD",
"9	c #555555",
"0	c #9E9E9E",
"a	c #D8D8D8",
"b	c #DEDEDE",
"c	c #959595",
"d	c #656565",
"e	c #F4F4F4",
"f	c #222222",
"g	c #C2C2C2",
"h	c #6D6D6D",
"i	c #969696",
"j	c #E4E4E4",
"...+@@@@@@@@@@@@@+...",
"...+@@@@@@@@@@@@@#...",
"...+@@@@@@@@@@@@$%...",
".............&@@*....",
".............=@@-....",
"............;>@,'....",
"............)@@!.....",
"............~@@{.....",
"...........]@@^......",
".........../@@(......",
".........._:@<_......",
"..........[@@}.......",
"..........|@@1.......",
".........2@@3........",
".........4@@5........",
"........67@89........",
"........0@@a.........",
"........b@@c.........",
".......d@@ef.........",
".......!@@g..........",
"......',@@h..........",
"......i@@j..........."};
