/* XPM */
static xpm_string_t n8_xpm[] = {
"21 22 83 1",
" 	c None",
".	c #000000",
"+	c #757575",
"@	c #C6C6C6",
"#	c #E8E8E8",
"$	c #F8F8F8",
"%	c #FDFDFD",
"&	c #EAEAEA",
"*	c #CACACA",
"=	c #7F7F7F",
"-	c #0D0D0D",
";	c #C3C3C3",
">	c #FEFEFE",
",	c #FFFFFF",
"'	c #CCCCCC",
")	c #222222",
"!	c #BEBEBE",
"~	c #535353",
"{	c #EDEDED",
"]	c #A3A3A3",
"^	c #636363",
"/	c #2E2E2E",
"(	c #5F5F5F",
"_	c #9C9C9C",
":	c #E9E9E9",
"<	c #6A6A6A",
"[	c #9F9F9F",
"}	c #F2F2F2",
"|	c #424242",
"1	c #323232",
"2	c #EBEBEB",
"3	c #ADADAD",
"4	c #AFAFAF",
"5	c #C5C5C5",
"6	c #B6B6B6",
"7	c #BDBDBD",
"8	c #A0A0A0",
"9	c #B7B7B7",
"0	c #555555",
"a	c #FCFCFC",
"b	c #F1F1F1",
"c	c #404040",
"d	c #ECECEC",
"e	c #606060",
"f	c #5D5D5D",
"g	c #9B9B9B",
"h	c #E7E7E7",
"i	c #A9A9A9",
"j	c #F7F7F7",
"k	c #F9F9F9",
"l	c #B4B4B4",
"m	c #898989",
"n	c #F0F0F0",
"o	c #F5F5F5",
"p	c #949494",
"q	c #515151",
"r	c #E0E0E0",
"s	c #474747",
"t	c #EFEFEF",
"u	c #666666",
"v	c #626262",
"w	c #959595",
"x	c #E3E3E3",
"y	c #F4F4F4",
"z	c #585858",
"A	c #C0C0C0",
"B	c #D8D8D8",
"C	c #161616",
"D	c #CDCDCD",
"E	c #737373",
"F	c #383838",
"G	c #FBFBFB",
"H	c #DFDFDF",
"I	c #D7D7D7",
"J	c #CECECE",
"K	c #E6E6E6",
"L	c #353535",
"M	c #4D4D4D",
"N	c #DDDDDD",
"O	c #E2E2E2",
"P	c #5A5A5A",
"Q	c #8D8D8D",
"R	c #D1D1D1",
"......+@#$%$&*=......",
"....-;>,,,,,,,,')....",
"....!,,,,,,,,,,,*....",
"...~%,,{]^/(_:,,,<...",
"...[,,}|.....12,,3...",
"...4,,5.......6,,7...",
"...8,,5.......9,,4...",
"...0a,bc...../&,,<...",
"....6,,d8e/fgh,,;....",
".....ij,,,,,,,kl.....",
"......mn,,,,,op-.....",
"....qr,,,,,,,,,#(....",
"...st,,#_u1vwx,,yz...",
"...A,,BC......D,,*...",
"...d,,E.......~,,y...",
"...k,,F........k,,C..",
"...y,,E.......~,,G...",
"...H,,IC......J,,h...",
"...i,,,Kg^/ewx,,,l...",
"...)K,,,,,,,,,,,dL...",
"....MN,,,,,,,,,OP....",
"......QJ2$>k{Rp-....."};
