/* XPM */
static xpm_string_t n9_xpm[] = {
"21 22 87 1",
" 	c #FFC0CB",
".	c #000000",
"+	c #767676",
"@	c #CACACA",
"#	c #ECECEC",
"$	c #F9F9F9",
"%	c #FBFBFB",
"&	c #F0F0F0",
"*	c #D2D2D2",
"=	c #8D8D8D",
"-	c #222222",
";	c #C5C5C5",
">	c #FFFFFF",
",	c #D3D3D3",
"'	c #2E2E2E",
")	c #CDCDCD",
"!	c #D7D7D7",
"~	c #0D0D0D",
"{	c #909090",
"]	c #DEDEDE",
"^	c #8B8B8B",
"/	c #424242",
"(	c #2A2A2A",
"_	c #707070",
":	c #C1C1C1",
"<	c #FDFDFD",
"[	c #A1A1A1",
"}	c #DBDBDB",
"|	c #D5D5D5",
"1	c #9B9B9B",
"2	c #626262",
"3	c #E3E3E3",
"4	c #828282",
"5	c #4B4B4B",
"6	c #F4F4F4",
"7	c #C3C3C3",
"8	c #BEBEBE",
"9	c #D9D9D9",
"0	c #161616",
"a	c #FCFCFC",
"b	c #606060",
"c	c #EDEDED",
"d	c #E0E0E0",
"e	c #D4D4D4",
"f	c #979797",
"g	c #F5F5F5",
"h	c #9F9F9F",
"i	c #DDDDDD",
"j	c #8A8A8A",
"k	c #404040",
"l	c #6E6E6E",
"m	c #BFBFBF",
"n	c #FEFEFE",
"o	c #DCDCDC",
"p	c #C6C6C6",
"q	c #FAFAFA",
"r	c #D8D8D8",
"s	c #D1D1D1",
"t	c #727272",
"u	c #F2F2F2",
"v	c #8E8E8E",
"w	c #F7F7F7",
"x	c #E2E2E2",
"y	c #9D9D9D",
"z	c #9C9C9C",
"A	c #E6E6E6",
"B	c #C7C7C7",
"C	c #262626",
"D	c #B4B4B4",
"E	c #323232",
"F	c #919191",
"G	c #BDBDBD",
"H	c #CECECE",
"I	c #CBCBCB",
"J	c #929292",
"K	c #696969",
"L	c #353535",
"M	c #454545",
"N	c #848484",
"O	c #CCCCCC",
"P	c #6A6A6A",
"Q	c #DFDFDF",
"R	c #636363",
"S	c #4F4F4F",
"T	c #A6A6A6",
"U	c #EEEEEE",
"V	c #D0D0D0",
"......+@#$%&*=.......",
"....-;>>>>>>>>,'.....",
"....)>>>>>>>>>>!~....",
"...{>>>]^/(_:<>>[....",
"...}>>|~.....1>>&~...",
"..~%>>2.......3>>4...",
"..5>>6........7>>8...",
"..5>>6........7>>9...",
"..0a>>b.......3>>c...",
"...d>>e......f>>>g...",
"...h>>>ijk(lm<n>>%...",
"...0o>>>>>>>>>p>>q...",
"....kr>>>>>>>st>>u...",
"......v*&%wxy.z>>A...",
"..............B>>@...",
".............Cg>>h...",
".............D>>wE...",
"............Fa>>G....",
"....HIJKLMNOn>>#'....",
"....}>>>>>>>>>uP.....",
"....}>>>>>>>>QR......",
"....STrcqqUVJ........"};
