/* XPM */
static xpm_string_t n_two_dots_xpm[] = {
"11 22 5 1",
" 	c None",
".	c #000000",
"+	c #949494",
"@	c #FFFFFF",
"#	c #DDDDDD",
"...........",
"...........",
"...........",
"....+@@#...",
"....+@@#...",
"...........",
"...........",
"...........",
"...........",
"...........",
"...........",
"...........",
"...........",
"...........",
"...........",
"...........",
"...........",
"....+@@#...",
"....+@@#...",
"...........",
"...........",
"..........."};
