/* XPM */
static xpm_string_t O_xpm[] = {
"21 22 80 1",
" 	c None",
".	c #000000",
"+	c #6E6E6E",
"@	c #BABABA",
"#	c #E3E3E3",
"$	c #F2F2F2",
"%	c #FCFCFC",
"&	c #F8F8F8",
"*	c #EEEEEE",
"=	c #D6D6D6",
"-	c #A6A6A6",
";	c #3D3D3D",
">	c #4D4D4D",
",	c #CECECE",
"'	c #FEFEFE",
")	c #FFFFFF",
"!	c #F4F4F4",
"~	c #A8A8A8",
"{	c #686868",
"]	c #CACACA",
"^	c #1C1C1C",
"/	c #454545",
"(	c #F0F0F0",
"_	c #E5E5E5",
":	c #A5A5A5",
"<	c #636363",
"[	c #323232",
"}	c #797979",
"|	c #F6F6F6",
"1	c #C2C2C2",
"2	c #D4D4D4",
"3	c #B2B2B2",
"4	c #0D0D0D",
"5	c #494949",
"6	c #DFDFDF",
"7	c #8D8D8D",
"8	c #737373",
"9	c #B5B5B5",
"0	c #2E2E2E",
"a	c #E9E9E9",
"b	c #E4E4E4",
"c	c #CCCCCC",
"d	c #E8E8E8",
"e	c #7E7E7E",
"f	c #E1E1E1",
"g	c #B8B8B8",
"h	c #585858",
"i	c #DBDBDB",
"j	c #949494",
"k	c #909090",
"l	c #EDEDED",
"m	c #828282",
"n	c #5A5A5A",
"o	c #F1F1F1",
"p	c #A4A4A4",
"q	c #CDCDCD",
"r	c #787878",
"s	c #767676",
"t	c #B3B3B3",
"u	c #2A2A2A",
"v	c #AFAFAF",
"w	c #DEDEDE",
"x	c #8F8F8F",
"y	c #A3A3A3",
"z	c #626262",
"A	c #424242",
"B	c #B9B9B9",
"C	c #C4C4C4",
"D	c #6A6A6A",
"E	c #EFEFEF",
"F	c #222222",
"G	c #515151",
"H	c #D0D0D0",
"I	c #F5F5F5",
"J	c #AAAAAA",
"K	c #707070",
"L	c #BBBBBB",
"M	c #F3F3F3",
"N	c #F9F9F9",
"O	c #A7A7A7",
"......+@#$%&*=-;.....",
"....>,'))))))))!~....",
"...{*))))))))))))]^..",
"../()))_:<[/}@|)))1..",
"..2)))34......56)))7.",
".8)))9.........0a))b.",
".c))d4..........})))e",
".()):............f))g",
"h)))h............g))i",
"e))|.............j))a",
"k))l.............m))$",
"k))l.............m))$",
"e))|.............j))a",
"n)))h............g))i",
".o))p............f))g",
".q))d4..........r)))e",
".s)))t.........ud))_.",
"..=))'v......./w)))x.",
"..5o)))byz0ArB|)))C..",
"...DE))))))))))))cF..",
"....GH'))))))))IJ....",
"......KL#M%NE=O;....."};
