/* XPM */
static xpm_string_t P_xpm[] = {
"21 22 36 1",
" 	c None",
".	c #000000",
"+	c #474747",
"@	c #FFFFFF",
"#	c #F9F9F9",
"$	c #EEEEEE",
"%	c #D4D4D4",
"&	c #999999",
"*	c #1C1C1C",
"=	c #E6E6E6",
"-	c #626262",
";	c #3B3B3B",
">	c #F5F5F5",
",	c #161616",
"'	c #5F5F5F",
")	c #949494",
"!	c #E3E3E3",
"~	c #B7B7B7",
"{	c #0D0D0D",
"]	c #D7D7D7",
"^	c #E8E8E8",
"/	c #7A7A7A",
"(	c #FDFDFD",
"_	c #4B4B4B",
":	c #383838",
"<	c #797979",
"[	c #D6D6D6",
"}	c #5C5C5C",
"|	c #929292",
"1	c #E1E1E1",
"2	c #B8B8B8",
"3	c #3D3D3D",
"4	c #656565",
"5	c #FAFAFA",
"6	c #9B9B9B",
"7	c #222222",
"....+@@@@@@@#$%&*....",
"....+@@@@@@@@@@@=-...",
"....+@@@@@@@@@@@@$;..",
"....+@@>...,')!@@@~..",
"....+@@>......{]@@^..",
"....+@@>......./@@(..",
"....+@@>......._@@@:.",
"....+@@>.......<@@(..",
"....+@@>......{[@@^..",
"....+@@>...,}|1@@@2..",
"....+@@@@@@@@@@@@$3..",
"....+@@@@@@@@@@@^4...",
"....+@@@@@@@5$%67....",
"....+@@>.............",
"....+@@>.............",
"....+@@>.............",
"....+@@>.............",
"....+@@>.............",
"....+@@>.............",
"....+@@>.............",
"....+@@>.............",
"....+@@>............."};
