/* XPM */
static xpm_string_t Q_xpm[] = {
"21 22 92 2",
"  	c None",
". 	c #000000",
"+ 	c #818181",
"@ 	c #C6C6C6",
"# 	c #E7E7E7",
"$ 	c #F8F8F8",
"% 	c #FDFDFD",
"& 	c #E9E9E9",
"* 	c #CACACA",
"= 	c #878787",
"- 	c #727272",
"; 	c #E2E2E2",
"> 	c #FFFFFF",
", 	c #E3E3E3",
"' 	c #757575",
") 	c #9B9B9B",
"! 	c #FCFCFC",
"~ 	c #D7D7D7",
"{ 	c #999999",
"] 	c #5A5A5A",
"^ 	c #2A2A2A",
"/ 	c #4D4D4D",
"( 	c #8F8F8F",
"_ 	c #D2D2D2",
": 	c #FEFEFE",
"< 	c #9F9F9F",
"[ 	c #8C8C8C",
"} 	c #F7F7F7",
"| 	c #8D8D8D",
"1 	c #888888",
"2 	c #949494",
"3 	c #424242",
"4 	c #F4F4F4",
"5 	c #FBFBFB",
"6 	c #787878",
"7 	c #717171",
"8 	c #FAFAFA",
"9 	c #4F4F4F",
"0 	c #BDBDBD",
"a 	c #B3B3B3",
"b 	c #B6B6B6",
"c 	c #222222",
"d 	c #F5F5F5",
"e 	c #3B3B3B",
"f 	c #262626",
"g 	c #F6F6F6",
"h 	c #F9F9F9",
"i 	c #868686",
"j 	c #D3D3D3",
"k 	c #D0D0D0",
"l 	c #979797",
"m 	c #AFAFAF",
"n 	c #C4C4C4",
"o 	c #CECECE",
"p 	c #DBDBDB",
"q 	c #6D6D6D",
"r 	c #E6E6E6",
"s 	c #6C6C6C",
"t 	c #E8E8E8",
"u 	c #989898",
"v 	c #DFDFDF",
"w 	c #B2B2B2",
"x 	c #9D9D9D",
"y 	c #D4D4D4",
"z 	c #D5D5D5",
"A 	c #C8C8C8",
"B 	c #B5B5B5",
"C 	c #F2F2F2",
"D 	c #7A7A7A",
"E 	c #BCBCBC",
"F 	c #B9B9B9",
"G 	c #A8A8A8",
"H 	c #EEEEEE",
"I 	c #0D0D0D",
"J 	c #404040",
"K 	c #F3F3F3",
"L 	c #7D7D7D",
"M 	c #6E6E6E",
"N 	c #BBBBBB",
"O 	c #767676",
"P 	c #A2A2A2",
"Q 	c #8E8E8E",
"R 	c #474747",
"S 	c #B0B0B0",
"T 	c #1C1C1C",
"U 	c #585858",
"V 	c #555555",
"W 	c #F1F1F1",
"X 	c #515151",
"Y 	c #ECECEC",
"Z 	c #C7C7C7",
"` 	c #8A8A8A",
". . . . . . + @ # $ % $ & * = . . . . . . ",
". . . . - ; > > > > > > > > > , ' . . . . ",
". . . ) ! > > ~ { ] ^ / ( _ : > ! < . . . ",
". . [ : > } | . . . . . . . 1 } > : 2 . . ",
". 3 4 > 5 6 . . . . . . . . . 7 8 > } 9 . ",
". 0 > > a . . . . . . . . . . . b > > @ . ",
"c d > $ e . . . . . . . . . . . f g > h e ",
"i > > j . . . . . . . . . . . . . k > > l ",
"b > > m . . . . . . . . . . . . . < > > n ",
"o > > l . . . . . . . . . . . . . = > > p ",
"~ > > 1 . . . . . . . . . . . . . q > > r ",
"~ > > 1 . . . . . . . . . . . . . s > > t ",
"o > > u . . . . . . . . . . . . . + > > v ",
"b > > w . . . . . . . . . . . . . x > > y ",
"= > > z . . . . . . . . . . . . . A > > B ",
"c d > 8 3 . . . . . . . . . . . f C > > D ",
". E > > F . . . . . . ; n s . . G > > H I ",
". J K > ! L . . . . M > > % N O h > > P . ",
". . = % > $ Q . . . R S H > > : > > ; T . ",
". . . 2 5 > > ~ u U f V l d > > > W X . . ",
". . . . s v > > > > > > > > > Y % 5 b c . ",
". . . . . . + Z t $ : h & * [ . ` g > Y P "};
