/* XPM */
static xpm_string_t R_xpm[] = {
"21 22 63 1",
" 	c None",
".	c #000000",
"+	c #D2D2D2",
"@	c #FFFFFF",
"#	c #FDFDFD",
"$	c #F8F8F8",
"%	c #EDEDED",
"&	c #D5D5D5",
"*	c #9A9A9A",
"=	c #DFDFDF",
"-	c #353535",
";	c #7D7D7D",
">	c #2E2E2E",
",	c #686868",
"'	c #ACACAC",
")	c #F4F4F4",
"!	c #D1D1D1",
"~	c #636363",
"{	c #FEFEFE",
"]	c #6C6C6C",
"^	c #C5C5C5",
"/	c #AAAAAA",
"(	c #B1B1B1",
"_	c #BCBCBC",
":	c #CECECE",
"<	c #A9A9A9",
"[	c #7A7A7A",
"}	c #FCFCFC",
"|	c #FBFBFB",
"1	c #585858",
"2	c #1C1C1C",
"3	c #474747",
"4	c #7C7C7C",
"5	c #BBBBBB",
"6	c #F9F9F9",
"7	c #B3B3B3",
"8	c #ABABAB",
"9	c #F5F5F5",
"0	c #D0D0D0",
"a	c #A5A5A5",
"b	c #424242",
"c	c #0D0D0D",
"d	c #3B3B3B",
"e	c #8E8E8E",
"f	c #E9E9E9",
"g	c #C9C9C9",
"h	c #E2E2E2",
"i	c #D9D9D9",
"j	c #535353",
"k	c #C4C4C4",
"l	c #939393",
"m	c #8D8D8D",
"n	c #F0F0F0",
"o	c #515151",
"p	c #F7F7F7",
"q	c #BFBFBF",
"r	c #6E6E6E",
"s	c #161616",
"t	c #E7E7E7",
"u	c #E0E0E0",
"v	c #7E7E7E",
"w	c #A2A2A2",
"x	c #CBCBCB",
".....................",
".+@@@@@@@@@#$%&*.....",
".+@@@@@@@@@@@@@@=-...",
".+@@;......>,')@@!...",
".+@@;.........~$@{]..",
".+@@;..........^@@/..",
".+@@;..........(@@_..",
".+@@;..........:@@<..",
".+@@;.........[}@|1..",
".+@@;.....23456@@7...",
".+@@@@@@@@@@@@@$8....",
".+@@@@@@@@@@90ab.....",
".+@@;..cdef@{g>......",
".+@@;.....-h@@i2.....",
".+@@;......j9@@k.....",
".+@@;.......l@@@m....",
".+@@;........+@@n-...",
".+@@;........op@@q...",
".+@@;.........'@@}r..",
".+@@;.........st@@u..",
".+@@;..........v{@@w.",
".+@@;...........x@@93"};
