/* XPM */
static xpm_string_t S_xpm[] = {
"21 22 91 1",
" 	c None",
".	c #000000",
"+	c #5F5F5F",
"@	c #B5B5B5",
"#	c #E1E1E1",
"$	c #F2F2F2",
"%	c #FCFCFC",
"&	c #F9F9F9",
"*	c #F1F1F1",
"=	c #DCDCDC",
"-	c #B8B8B8",
";	c #B9B9B9",
">	c #FBFBFB",
",	c #FFFFFF",
"'	c #C2C2C2",
")	c #0D0D0D",
"!	c #C0C0C0",
"~	c #949494",
"{	c #565656",
"]	c #262626",
"^	c #383838",
"/	c #717171",
"(	c #B3B3B3",
"_	c #F6F6F6",
":	c #C6C6C6",
"<	c #757575",
"[	c #C9C9C9",
"}	c #5D5D5D",
"|	c #F3F3F3",
"1	c #FEFEFE",
"2	c #727272",
"3	c #FDFDFD",
"4	c #424242",
"5	c #A2A2A2",
"6	c #C3C3C3",
"7	c #E2E2E2",
"8	c #FAFAFA",
"9	c #3D3D3D",
"0	c #D8D8D8",
"a	c #E3E3E3",
"b	c #8A8A8A",
"c	c #535353",
"d	c #CACACA",
"e	c #F5F5F5",
"f	c #9E9E9E",
"g	c #222222",
"h	c #777777",
"i	c #CFCFCF",
"j	c #A3A3A3",
"k	c #606060",
"l	c #AFAFAF",
"m	c #CDCDCD",
"n	c #989898",
"o	c #2E2E2E",
"p	c #939393",
"q	c #AAAAAA",
"r	c #161616",
"s	c #999999",
"t	c #D1D1D1",
"u	c #DBDBDB",
"v	c #C7C7C7",
"w	c #F0F0F0",
"x	c #555555",
"y	c #515151",
"z	c #969696",
"A	c #B6B6B6",
"B	c #EAEAEA",
"C	c #F4F4F4",
"D	c #626262",
"E	c #B1B1B1",
"F	c #BEBEBE",
"G	c #929292",
"H	c #888888",
"I	c #E9E9E9",
"J	c #4B4B4B",
"K	c #E8E8E8",
"L	c #D5D5D5",
"M	c #404040",
"N	c #919191",
"O	c #6D6D6D",
"P	c #BBBBBB",
"Q	c #7E7E7E",
"R	c #4D4D4D",
"S	c #E5E5E5",
"T	c #353535",
"U	c #707070",
"V	c #E4E4E4",
"W	c #CECECE",
"X	c #474747",
"Y	c #8D8D8D",
"Z	c #E7E7E7",
"......+@#$%&*=-+.....",
".....;>,,,,,,,,%')...",
"....!,,=~{]^/(_,,:...",
"...<,,[.......}|,12..",
"...[,34........5,,6..",
"...7,8)........91,0..",
"...a,,b.........c]...",
"...d,,efg............",
"...h1,,,_ijk.........",
"....l,,,,,,,*mno.....",
".....p$,,,,,,,,_qr...",
"......]st_,,,,,,,u]..",
".........)<l08,,,,v..",
".............ojw,,%x.",
"...............yw,,z.",
"..ABCD..........E,,q.",
"..F,,j..........f,,G.",
"..H,,Ig.........[,>J.",
"..)K,,LM.......N%,:..",
"...Oe,,CPQR]cNt1,ST..",
"....UV,,,,,,,,,,WX...",
"......Y6a*&3CZ!h....."};
