/* XPM */
static xpm_string_t ship_xpm[] = {
"44 44 384 2",
"  	c #FFC0CB",
". 	c #656564",
"+ 	c #424343",
"@ 	c #2E2F2E",
"# 	c #393A3A",
"$ 	c #7E7D7C",
"% 	c #828282",
"& 	c #252624",
"* 	c #2F302E",
"= 	c #848484",
"- 	c #888888",
"; 	c #535557",
"> 	c #66696B",
", 	c #8F8F8F",
"' 	c #858585",
") 	c #252626",
"! 	c #565859",
"~ 	c #6A6D6E",
"{ 	c #343536",
"] 	c #898989",
"^ 	c #A8A8A8",
"/ 	c #696867",
"( 	c #2A2A2B",
"_ 	c #4D5052",
": 	c #57595C",
"< 	c #3A3A3B",
"[ 	c #AEAEAE",
"} 	c #868585",
"| 	c #959595",
"1 	c #423E3D",
"2 	c #252729",
"3 	c #4A4A4A",
"4 	c #797979",
"5 	c #35373A",
"6 	c #989898",
"7 	c #878585",
"8 	c #8D8D8D",
"9 	c #6B6A6A",
"0 	c #393534",
"a 	c #1F2021",
"b 	c #505050",
"c 	c #8D8C8C",
"d 	c #383B3D",
"e 	c #6C6B6A",
"f 	c #8A8A8A",
"g 	c #7D7D7D",
"h 	c #858484",
"i 	c #322C2B",
"j 	c #191A1B",
"k 	c #575757",
"l 	c #2E2E30",
"m 	c #7A7A7A",
"n 	c #726262",
"o 	c #251010",
"p 	c #111111",
"q 	c #616161",
"r 	c #282829",
"s 	c #281717",
"t 	c #726363",
"u 	c #777777",
"v 	c #717171",
"w 	c #534443",
"x 	c #2B2D2E",
"y 	c #323334",
"z 	c #636363",
"A 	c #969696",
"B 	c #525555",
"C 	c #2C2D2D",
"D 	c #534444",
"E 	c #5A5A59",
"F 	c #1F1F1F",
"G 	c #404243",
"H 	c #242525",
"I 	c #5B5B5B",
"J 	c #878787",
"K 	c #393A3B",
"L 	c #505253",
"M 	c #222222",
"N 	c #5A5A5A",
"O 	c #1D1D1D",
"P 	c #434445",
"Q 	c #3F4041",
"R 	c #2A2A2A",
"S 	c #4E4E4E",
"T 	c #747474",
"U 	c #3D3D3D",
"V 	c #595A5C",
"W 	c #5D5E60",
"X 	c #262627",
"Y 	c #212222",
"Z 	c #3D3E3F",
"` 	c #424243",
" .	c #302E2D",
"..	c #3E3E3E",
"+.	c #606060",
"@.	c #474443",
"#.	c #58595A",
"$.	c #555657",
"%.	c #242424",
"&.	c #272828",
"*.	c #1E1F1F",
"=.	c #292929",
"-.	c #2A2727",
";.	c #2E2D2C",
">.	c #2F2F2F",
",.	c #4F4F50",
"'.	c #373434",
").	c #3C3B3B",
"!.	c #3E3D3D",
"~.	c #212323",
"{.	c #282828",
"].	c #333435",
"^.	c #303335",
"/.	c #242728",
"(.	c #2D2E2E",
"_.	c #373737",
":.	c #38393A",
"<.	c #535659",
"[.	c #545657",
"}.	c #414243",
"|.	c #494A4A",
"1.	c #2A2D2E",
"2.	c #343739",
"3.	c #4C4E50",
"4.	c #232223",
"5.	c #312E2E",
"6.	c #3D3F3F",
"7.	c #414345",
"8.	c #2F3133",
"9.	c #323234",
"0.	c #313132",
"a.	c #3B3C3C",
"b.	c #474A4B",
"c.	c #313231",
"d.	c #464848",
"e.	c #464648",
"f.	c #4B4D4E",
"g.	c #181819",
"h.	c #464749",
"i.	c #404242",
"j.	c #3F3C3C",
"k.	c #2B2A2A",
"l.	c #5E6163",
"m.	c #1D1817",
"n.	c #313031",
"o.	c #424344",
"p.	c #2A2B2C",
"q.	c #252627",
"r.	c #252525",
"s.	c #555555",
"t.	c #303233",
"u.	c #29292B",
"v.	c #393B3B",
"w.	c #666A6D",
"x.	c #555759",
"y.	c #434545",
"z.	c #3E3E40",
"A.	c #4F5153",
"B.	c #565656",
"C.	c #2D2D2E",
"D.	c #525455",
"E.	c #2D2C2C",
"F.	c #231C1B",
"G.	c #525051",
"H.	c #504A4C",
"I.	c #1C1C1C",
"J.	c #737373",
"K.	c #979697",
"L.	c #363738",
"M.	c #3A3B3B",
"N.	c #595C5C",
"O.	c #484848",
"P.	c #48494A",
"Q.	c #505152",
"R.	c #555758",
"S.	c #818181",
"T.	c #9E9E9E",
"U.	c #6C6C6C",
"V.	c #232324",
"W.	c #5D595B",
"X.	c #67686A",
"Y.	c #303132",
"Z.	c #392F30",
"`.	c #3F3C3D",
" +	c #686768",
".+	c #818080",
"++	c #6D6D6D",
"@+	c #1E1E1E",
"#+	c #252221",
"$+	c #302D2C",
"%+	c #595B5C",
"&+	c #484847",
"*+	c #363231",
"=+	c #363637",
"-+	c #757575",
";+	c #828182",
">+	c #858485",
",+	c #676667",
"'+	c #3A2E2F",
")+	c #4D4B4C",
"!+	c #3B3B3C",
"~+	c #404040",
"{+	c #5B5D5D",
"]+	c #8F8F8E",
"^+	c #6A6A6A",
"/+	c #2D2E2F",
"(+	c #181717",
"_+	c #58595B",
":+	c #343434",
"<+	c #3D3E3E",
"[+	c #4D4E4F",
"}+	c #585A5A",
"|+	c #706F6F",
"1+	c #3C3D3D",
"2+	c #303131",
"3+	c #383939",
"4+	c #414242",
"5+	c #8B8B8B",
"6+	c #929292",
"7+	c #1E1F20",
"8+	c #575859",
"9+	c #3F4040",
"0+	c #313233",
"a+	c #3C3C3C",
"b+	c #424444",
"c+	c #9A9A9A",
"d+	c #5E5E5E",
"e+	c #2E2F30",
"f+	c #3E4040",
"g+	c #525353",
"h+	c #7F7F7D",
"i+	c #878786",
"j+	c #9B9A9A",
"k+	c #2D2D2D",
"l+	c #171615",
"m+	c #242221",
"n+	c #313130",
"o+	c #929190",
"p+	c #5D5E5F",
"q+	c #303234",
"r+	c #56595C",
"s+	c #353737",
"t+	c #525456",
"u+	c #535556",
"v+	c #3C3E3F",
"w+	c #6D6E6F",
"x+	c #9A9897",
"y+	c #5C5C5C",
"z+	c #212121",
"A+	c #181716",
"B+	c #232221",
"C+	c #3A3A3A",
"D+	c #AAAAA9",
"E+	c #959593",
"F+	c #7F7E7E",
"G+	c #A1A0A0",
"H+	c #9C9C9C",
"I+	c #6F6F6F",
"J+	c #402C2C",
"K+	c #341413",
"L+	c #532321",
"M+	c #542928",
"N+	c #595959",
"O+	c #706D6D",
"P+	c #272A2A",
"Q+	c #383B3B",
"R+	c #3A3B3C",
"S+	c #4D5151",
"T+	c #323434",
"U+	c #262829",
"V+	c #7E7C7B",
"W+	c #828181",
"X+	c #545454",
"Y+	c #371C1B",
"Z+	c #381615",
"`+	c #49201E",
" @	c #533736",
".@	c #666666",
"+@	c #A4A4A4",
"@@	c #ABABAA",
"#@	c #8A8988",
"$@	c #B0B0AF",
"%@	c #A4A2A1",
"&@	c #A3A1A1",
"*@	c #8B8988",
"=@	c #666564",
"-@	c #472D2C",
";@	c #4A2A29",
">@	c #6C3231",
",@	c #5C2C2A",
"'@	c #625E5C",
")@	c #4A4746",
"!@	c #262525",
"~@	c #292A2B",
"{@	c #202121",
"]@	c #3B3E3E",
"^@	c #323333",
"/@	c #4E4F50",
"(@	c #414141",
"_@	c #303231",
":@	c #4A4D4E",
"<@	c #282929",
"[@	c #272626",
"}@	c #565351",
"|@	c #605B59",
"1@	c #411B1A",
"2@	c #512827",
"3@	c #65302E",
"4@	c #5D3938",
"5@	c #908F8E",
"6@	c #A6A5A4",
"7@	c #A7A5A4",
"8@	c #B6B5B4",
"9@	c #838382",
"0@	c #A29E9B",
"a@	c #968F8B",
"b@	c #8F8885",
"c@	c #676260",
"d@	c #3A3938",
"e@	c #4A4949",
"f@	c #4E4F4F",
"g@	c #3B3B3B",
"h@	c #3C2928",
"i@	c #202020",
"j@	c #262626",
"k@	c #181818",
"l@	c #383839",
"m@	c #313334",
"n@	c #5B5E60",
"o@	c #4A4B4C",
"p@	c #444444",
"q@	c #242423",
"r@	c #41302E",
"s@	c #272727",
"t@	c #444443",
"u@	c #525252",
"v@	c #474544",
"w@	c #716C6A",
"x@	c #968F8C",
"y@	c #9A938F",
"z@	c #A8A4A2",
"A@	c #454342",
"B@	c #3D3C3C",
"C@	c #292B2C",
"D@	c #41403F",
"E@	c #2B2E2F",
"F@	c #444445",
"G@	c #5B5858",
"H@	c #242425",
"I@	c #4D4D4E",
"J@	c #3C3D3E",
"K@	c #5C5B5B",
"L@	c #585656",
"M@	c #353332",
"N@	c #464645",
"O@	c #363535",
"P@	c #323131",
"Q@	c #5D5958",
"R@	c #707070",
"S@	c #909090",
"T@	c #1E1E1F",
"U@	c #3B3D3E",
"V@	c #0A0909",
"W@	c #080707",
"X@	c #838383",
"Y@	c #727171",
"Z@	c #4B4B4B",
"`@	c #444040",
" #	c #373636",
".#	c #3D4142",
"+#	c #2E3032",
"@#	c #3B3A3A",
"##	c #0B0B0B",
"$#	c #6C6362",
"%#	c #8C8B8A",
"&#	c #070707",
"*#	c #090909",
"=#	c #4F4F4F",
"-#	c #3A3333",
";#	c #222324",
">#	c #1D1D1E",
",#	c #2F3030",
"'#	c #0F0F10",
")#	c #262728",
"                                                                                        ",
"                                                                                        ",
"                                                                                        ",
"                                                                                        ",
"                                                                                        ",
"                                                                                        ",
"                                                                                        ",
"                                        .   +                                           ",
"                                          @ #   $                                       ",
"                                      %   & *   =                                       ",
"                                      -   ; >   ,                                       ",
"                                    ' % ) ! ~ { - ]                                     ",
"                                    ^ / ( _ : <   [                                     ",
"                                  } | 1 2 3 4 5   6 7                                   ",
"                                  8 9 0 a b c d 0 e f                                   ",
"                                  g h i j k 8 l i h m                                   ",
"                                  4 n o p q | r s t u                                   ",
"                                  v w x y z A B C D v                                   ",
"                                  E F G H I J K L M N                                   ",
"                                  O P Q R S T U V W X                                   ",
"                                  Y Z `  ...+.@.#.$.%.                                  ",
"                                &.*.=.-.;.>.,.'.).!.~.{.                                ",
"                              ].^./.(._.:.<.[.}.|.P 1.2.y                               ",
"                      3.4.5.6.7.8.p 9.0.a.b.c.d.e.f.g.5 h.i.j.k.l.                      ",
"                      m.n.o.p.q.r.s.t.u.v.w.x.y.z.A.B.O p.C.D.E.F.                      ",
"                      G.H.Z I.J.K.u L.K M.N.O.P.Q.R.S.T.U.p V.W.X.                      ",
"                    Y.Z.`.o. +.+m ++@+#+$+%+&+*+$+=+-+;+>+,+{.'+)+!+                    ",
"                    ~+P %+{+N - ]+^+/+(+&._+` =.:+G u A - B.<+P.[+}+                    ",
"                  |+1+2+3+4+z 5+6++.c.7+2+8+9+0+a+b+++c+5+d+e+c.f+g+h+                  ",
"              i+j+z k+l+m+n+q f o+p+q+M.b.r+s+t+u+v+w+x+5+y+z+A+B+C+U.D+E+              ",
"          F+G+H+I+q J+K+L+M+N+.+O+P+q.Q+v+[+R+3+S+T+U+V+W+X+Y+Z+`+ @.@u +@@@#@          ",
"          $@%@&@*@=@-@;@>@,@'@)@!@~@{@]@^@/@(@_@:@/+<@[@}@|@1@2@3@4@e 5@6@7@8@          ",
"        9@0@a@a@b@c@d@e@f@g@h@i@j@j@k@l@m@n@o@].p@&.q@r.F r@s@t@u@v@w@x@y@y@z@          ",
"                      3+/@R+        A@B@C@b D@E@F@G@        H@C+I@                      ",
"                      J@u+      S.K@L@M@k+N@O@P@r.Q@R@S@    T@U@D.                      ",
"                      V@W@    X@g Y@Z@`@ #.#+#@###$#%#, f     &#*#                      ",
"                                S.  =#-#<@;#>#,#'#    6+                                ",
"                                        /+    )#                                        ",
"                                        Z     :.                                        ",
"                                                                                        ",
"                                                                                        ",
"                                                                                        ",
"                                                                                        ",
"                                                                                        "};
