/* XPM */
static xpm_string_t Slash_xpm[] = {
"11 22 48 1",
" 	c None",
".	c #000000",
"+	c #0D0D0D",
"@	c #F6F6F6",
"#	c #FFFFFF",
"$	c #777777",
"%	c #7E7E7E",
"&	c #F4F4F4",
"*	c #BABABA",
"=	c #CFCFCF",
"-	c #E4E4E4",
";	c #9E9E9E",
">	c #494949",
",	c #FEFEFE",
"'	c #4B4B4B",
")	c #9D9D9D",
"!	c #BBBBBB",
"~	c #7F7F7F",
"{	c #161616",
"]	c #B6B6B6",
"^	c #D3D3D3",
"/	c #E1E1E1",
"(	c #A3A3A3",
"_	c #404040",
":	c #FDFDFD",
"<	c #535353",
"[	c #999999",
"}	c #E8E8E8",
"|	c #CBCBCB",
"1	c #BFBFBF",
"2	c #F1F1F1",
"3	c #868686",
"4	c #717171",
"5	c #F8F8F8",
"6	c #222222",
"7	c #B2B2B2",
"8	c #D6D6D6",
"9	c #DEDEDE",
"0	c #A8A8A8",
"a	c #383838",
"b	c #FCFCFC",
"c	c #5D5D5D",
"d	c #949494",
"e	c #EBEBEB",
"f	c #C8C8C8",
"g	c #C4C4C4",
"h	c #EFEFEF",
"i	c #8D8D8D",
"......+@#$.",
"......%#&..",
"......*#=..",
"......-#;..",
".....>,,'..",
".....)#-...",
".....=#!...",
".....&#~...",
"....$#@{...",
"....]#^....",
"..../#(....",
"..._:#<....",
"...[#}.....",
"...|#1.....",
"...2#3.....",
"..4#56.....",
"..7#8......",
"..9#0......",
".ab#c......",
".d#e.......",
".f#g.......",
".h#i......."};
