/* XPM */
static xpm_string_t T_xpm[] = {
"21 22 7 1",
" 	c None",
".	c #000000",
"+	c #949494",
"@	c #FFFFFF",
"#	c #DDDDDD",
"$	c #818181",
"%	c #D0D0D0",
".....................",
"..+@@@@@@@@@@@@@@@@#.",
"..+@@@@@@@@@@@@@@@@#.",
".........$@@%........",
".........$@@%........",
".........$@@%........",
".........$@@%........",
".........$@@%........",
".........$@@%........",
".........$@@%........",
".........$@@%........",
".........$@@%........",
".........$@@%........",
".........$@@%........",
".........$@@%........",
".........$@@%........",
".........$@@%........",
".........$@@%........",
".........$@@%........",
".........$@@%........",
".........$@@%........",
".........$@@%........"};
