/* XPM */
static xpm_string_t target_xpm[] = {
"40 40 72 1",
" 	c #FFC0CB",
".	c #C10606",
"+	c #C00403",
"@	c #C10A09",
"#	c #C10605",
"$	c #C20706",
"%	c #C10706",
"&	c #C10504",
"*	c #C00706",
"=	c #C00201",
"-	c #C10100",
";	c #C10201",
">	c #C00605",
",	c #C00606",
"'	c #C00100",
")	c #C10403",
"!	c #C10302",
"~	c #C10404",
"{	c #C10101",
"]	c #C00505",
"^	c #C10C0B",
"/	c #C00302",
"(	c #C00909",
"_	c #C10A0A",
":	c #C10908",
"<	c #C00101",
"[	c #C00303",
"}	c #C10909",
"|	c #C10E0E",
"1	c #C1100F",
"2	c #C00707",
"3	c #C10303",
"4	c #C00E0D",
"5	c #C10F0F",
"6	c #C10D0C",
"7	c #C10D0D",
"8	c #C10F0E",
"9	c #C00808",
"0	c #C10505",
"a	c #C21413",
"b	c #C21514",
"c	c #C21312",
"d	c #C21615",
"e	c #C21918",
"f	c #C21211",
"g	c #C11413",
"h	c #C11011",
"i	c #C11010",
"j	c #C11110",
"k	c #C21B1A",
"l	c #C10B0A",
"m	c #C10707",
"n	c #C21717",
"o	c #C11515",
"p	c #C11111",
"q	c #C21515",
"r	c #C10B0B",
"s	c #C10F10",
"t	c #C10807",
"u	c #C00504",
"v	c #C11211",
"w	c #C11819",
"x	c #C11414",
"y	c #C11C1C",
"z	c #C00A09",
"A	c #C00E0E",
"B	c #C10808",
"C	c #C21110",
"D	c #C21A1A",
"E	c #C00908",
"F	c #C00404",
"G	c #C11918",
"                .+@#$%&&                ",
"            *=------------;>            ",
"          ,'---)!  --  ~)---->          ",
"         )--{]     --     *;--)         ",
"       ^---        ;/        ---(       ",
"      _--=         00         )-->      ",
"     _--%          *:          :--<     ",
"    ^--            [~            --}    ",
"    --%            00            :--    ",
"   )-=             00             +-)   ",
"  ,--              0|              -->  ",
"  '-               <{               -'  ",
" *-{               00               <-% ",
" =-]               01               2-; ",
" --                0|                -- ",
" -)                3)                )- ",
".-!                ^4                )-&",
"+-                 00                 -[",
"@-                 06                 -%",
"#---;0*+000<0003^00)&7|0)8| ;|| &90!---0",
"$---[a@#bc0{dc0~ef|&000g0h0b=i0b>_j[---$",
"k-                 80                 -b",
"^-                 00                 -:",
"l-m                ng                #-}",
" -:                &0                0- ",
" --                ih                -- ",
" o-p               00               ^-8 ",
" g-3               qb               <-j ",
"  r-               %=               -%  ",
"  9-!              si              ;-2  ",
"   t-7             00             u-&   ",
"    --v            bb            |--    ",
"    w--            .>            --x    ",
"     y--v          z_          |--A     ",
"      k--B         Cj         u--A      ",
"       D--!        3[        ;--x       ",
"         m--=i     --     ^<--&         ",
"          EF---m%  --  #0---%2          ",
"            x^------------8j            ",
"                r@G0$b:}                "};
