/* XPM */
static xpm_string_t U_xpm[] = {
"21 22 53 1",
" 	c None",
".	c #000000",
"+	c #D2D2D2",
"@	c #FFFFFF",
"#	c #7D7D7D",
"$	c #CBCBCB",
"%	c #898989",
"&	c #888888",
"*	c #D0D0D0",
"=	c #7E7E7E",
"-	c #CDCDCD",
";	c #848484",
">	c #C8C8C8",
",	c #868686",
"'	c #D4D4D4",
")	c #777777",
"!	c #B8B8B8",
"~	c #9B9B9B",
"{	c #E2E2E2",
"]	c #515151",
"^	c #969696",
"/	c #BBBBBB",
"(	c #161616",
"_	c #F7F7F7",
":	c #F5F5F5",
"<	c #474747",
"[	c #FCFCFC",
"}	c #EDEDED",
"|	c #262626",
"1	c #8F8F8F",
"2	c #D1D1D1",
"3	c #CECECE",
"4	c #C7C7C7",
"5	c #4D4D4D",
"6	c #ECECEC",
"7	c #FEFEFE",
"8	c #7C7C7C",
"9	c #EFEFEF",
"0	c #9C9C9C",
"a	c #5F5F5F",
"b	c #404040",
"c	c #757575",
"d	c #B2B2B2",
"e	c #F2F2F2",
"f	c #B9B9B9",
"g	c #585858",
"h	c #DFDFDF",
"i	c #FAFAFA",
"j	c #ACACAC",
"k	c #CACACA",
"l	c #E8E8E8",
"m	c #F3F3F3",
"n	c #B5B5B5",
".....................",
"..+@@#..........$@@%.",
"..+@@#..........$@@%.",
"..+@@#..........$@@%.",
"..+@@#..........$@@%.",
"..+@@#..........$@@%.",
"..+@@#..........$@@%.",
"..+@@#..........$@@%.",
"..+@@#..........$@@%.",
"..+@@#..........$@@%.",
"..+@@#..........$@@%.",
"..+@@#..........$@@%.",
"..+@@#..........$@@&.",
"..*@@=..........-@@;.",
"..>@@,..........'@@).",
"..!@@~..........{@@].",
"..^@@/.........(_@:..",
"..<[@}|........1@@2..",
"...3@@4(......56@78..",
"...59@@{0a|bcde@@f...",
"....gh@@@@@@@@@ij....",
"......&kl_7[mhn]....."};
