/* XPM */
static xpm_string_t V_xpm[] = {
"21 22 74 1",
" 	c None",
".	c #000000",
"+	c #D7D7D7",
"@	c #FFFFFF",
"#	c #A7A7A7",
"$	c #999999",
"%	c #C8C8C8",
"&	c #919191",
"*	c #E1E1E1",
"=	c #DADADA",
"-	c #767676",
";	c #161616",
">	c #F1F1F1",
",	c #626262",
"'	c #555555",
")	c #FDFDFD",
"!	c #E5E5E5",
"~	c #BABABA",
"{	c #B9B9B9",
"]	c #B4B4B4",
"^	c #A6A6A6",
"/	c #5C5C5C",
"(	c #FEFEFE",
"_	c #EEEEEE",
":	c #ECECEC",
"<	c #F8F8F8",
"[	c #383838",
"}	c #818181",
"|	c #808080",
"1	c #949494",
"2	c #CACACA",
"3	c #CBCBCB",
"4	c #1C1C1C",
"5	c #F2F2F2",
"6	c #F7F7F7",
"7	c #2A2A2A",
"8	c #353535",
"9	c #BDBDBD",
"0	c #9A9A9A",
"a	c #A1A1A1",
"b	c #A5A5A5",
"c	c #606060",
"d	c #D8D8D8",
"e	c #DFDFDF",
"f	c #DCDCDC",
"g	c #4D4D4D",
"h	c #ADADAD",
"i	c #BBBBBB",
"j	c #757575",
"k	c #222222",
"l	c #F4F4F4",
"m	c #E6E6E6",
"n	c #0D0D0D",
"o	c #F0F0F0",
"p	c #E4E4E4",
"q	c #C0C0C0",
"r	c #6D6D6D",
"s	c #8B8B8B",
"t	c #656565",
"u	c #BFBFBF",
"v	c #D1D1D1",
"w	c #DEDEDE",
"x	c #3B3B3B",
"y	c #FBFBFB",
"z	c #9C9C9C",
"A	c #7D7D7D",
"B	c #9F9F9F",
"C	c #262626",
"D	c #F5F5F5",
"E	c #C1C1C1",
"F	c #C2C2C2",
"G	c #A4A4A4",
"H	c #6A6A6A",
"I	c #E0E0E0",
".....................",
".+@@#............$@@%",
".&@@*............=@@-",
".;>@@,..........')@!.",
"..~@@{..........]@@^.",
"../(@_..........:@<[.",
"...=@@}........|@@%..",
"...1@@2........3@@-..",
"...45@67......8<@!...",
"....9@@0......a@@b...",
"....c(@d......e@<[...",
".....f@)g....,@@%....",
".....$@@h....i@@j....",
".....kl@m...no@p.....",
"......q@@r..s@@b.....",
"......t@@u..v@<[.....",
".......w@o.xy@%......",
".......z@@AB@@j......",
".......CD@E+@p.......",
"........F@>y@G.......",
"........H@@@<8.......",
".........I@@%........"};
