/* XPM */
static xpm_string_t W_xpm[] = {
"21 22 104 2",
"  	c None",
". 	c #000000",
"+ 	c #F7F7F7",
"@ 	c #FFFFFF",
"# 	c #F9F9F9",
"$ 	c #F2F2F2",
"% 	c #FCFCFC",
"& 	c #1C1C1C",
"* 	c #E5E5E5",
"= 	c #494949",
"- 	c #222222",
"; 	c #FEFEFE",
"> 	c #ECECEC",
", 	c #D1D1D1",
"' 	c #777777",
") 	c #626262",
"! 	c #D8D8D8",
"~ 	c #B9B9B9",
"{ 	c #959595",
"] 	c #868686",
"^ 	c #C2C2C2",
"/ 	c #9D9D9D",
"( 	c #ADADAD",
"_ 	c #A1A1A1",
": 	c #A8A8A8",
"< 	c #787878",
"[ 	c #B7B7B7",
"} 	c #878787",
"| 	c #383838",
"1 	c #D4D4D4",
"2 	c #D5D5D5",
"3 	c #CACACA",
"4 	c #565656",
"5 	c #F3F3F3",
"6 	c #E4E4E4",
"7 	c #EEEEEE",
"8 	c #F1F1F1",
"9 	c #DBDBDB",
"0 	c #E0E0E0",
"a 	c #454545",
"b 	c #555555",
"c 	c #EBEBEB",
"d 	c #E7E7E7",
"e 	c #CBCBCB",
"f 	c #8D8D8D",
"g 	c #D3D3D3",
"h 	c #B2B2B2",
"i 	c #B8B8B8",
"j 	c #CDCDCD",
"k 	c #BEBEBE",
"l 	c #424242",
"m 	c #BCBCBC",
"n 	c #949494",
"o 	c #B1B1B1",
"p 	c #A6A6A6",
"q 	c #DEDEDE",
"r 	c #757575",
"s 	c #A0A0A0",
"t 	c #6C6C6C",
"u 	c #7F7F7F",
"v 	c #6D6D6D",
"w 	c #F8F8F8",
"x 	c #0D0D0D",
"y 	c #7D7D7D",
"z 	c #FDFDFD",
"A 	c #5A5A5A",
"B 	c #FBFBFB",
"C 	c #262626",
"D 	c #F6F6F6",
"E 	c #ACACAC",
"F 	c #999999",
"G 	c #E2E2E2",
"H 	c #DADADA",
"I 	c #A2A2A2",
"J 	c #C0C0C0",
"K 	c #F5F5F5",
"L 	c #C1C1C1",
"M 	c #C8C8C8",
"N 	c #D2D2D2",
"O 	c #C5C5C5",
"P 	c #DFDFDF",
"Q 	c #969696",
"R 	c #888888",
"S 	c #E6E6E6",
"T 	c #E3E3E3",
"U 	c #ABABAB",
"V 	c #515151",
"W 	c #353535",
"X 	c #F4F4F4",
"Y 	c #B5B5B5",
"Z 	c #8B8B8B",
"` 	c #989898",
" .	c #5D5D5D",
"..	c #D0D0D0",
"+.	c #C7C7C7",
"@.	c #717171",
"#.	c #FAFAFA",
"$.	c #AAAAAA",
"%.	c #9E9E9E",
"&.	c #2E2E2E",
"*.	c #E9E9E9",
"=.	c #737373",
"-.	c #5F5F5F",
";.	c #F0F0F0",
". + @ # . . . . . . . . . . . . $ @ % & . ",
". * @ @ = . . . . . . . . . . - ; @ > . . ",
". , @ @ ' . . . . . . . . . . ) @ @ ! . . ",
". ~ @ @ { . . . . . . . . . . ] @ @ ^ . . ",
". / @ @ ( . . . . . . . . . . _ @ @ : . . ",
". < @ @ ^ . . . . . . . . . . [ @ @ } . . ",
". | @ @ 1 . . . , @ @ 2 . . . 3 @ @ 4 . . ",
". . 5 @ 6 . . . 7 @ @ 8 . . . 9 @ # . . . ",
". . 0 @ $ . . a @ @ @ @ b . . c @ d . . . ",
". . e @ ; - . f @ 5 > @ { . . # @ g . . . ",
". . h @ @ ) . i @ 2 j @ k . l @ @ m . . . ",
". . n @ @ ] . ! @ o p @ q . r @ @ s . . . ",
". . t @ @ _ . 5 @ u v @ w x n @ @ y . . . ",
". . - z @ [ A @ B C . D @ t E @ @ l . . . ",
". . . 7 @ 3 F @ G . . H @ I J @ K . . . . ",
". . . 9 @ 9 J @ L . . [ @ M N @ G . . . . ",
". . . O @ c P @ Q . . R @ S T @ j . . . . ",
". . . U @ # w @ V . . W z % X @ Y . . . . ",
". . . Z @ @ @ 7 . . . . d @ @ @ ` . . . . ",
". . .  .@ @ @ ... . . . +.@ @ @ @.. . . . ",
". . . . #.@ @ $.. . . . %.@ @ ; &.. . . . ",
". . . . *.@ @ =.. . . . -.@ @ ;.. . . . . "};
