/* XPM */
static xpm_string_t X_xpm[] = {
"21 22 88 1",
" 	c None",
".	c #000000",
"+	c #161616",
"@	c #E4E4E4",
"#	c #FFFFFF",
"$	c #A8A8A8",
"%	c #A5A5A5",
"&	c #E5E5E5",
"*	c #1C1C1C",
"=	c #6D6D6D",
"-	c #FBFBFB",
";	c #F9F9F9",
">	c #5D5D5D",
",	c #606060",
"'	c #6C6C6C",
")	c #B4B4B4",
"!	c #DCDCDC",
"~	c #0D0D0D",
"{	c #DFDFDF",
"]	c #AFAFAF",
"^	c #E6E6E6",
"/	c #A6A6A6",
"(	c #717171",
"_	c #FCFCFC",
":	c #F8F8F8",
"<	c #5A5A5A",
"[	c #B8B8B8",
"}	c #DADADA",
"|	c #A4A4A4",
"1	c #222222",
"2	c #E8E8E8",
"3	c #A3A3A3",
"4	c #BABABA",
"5	c #D8D8D8",
"6	c #757575",
"7	c #FDFDFD",
"8	c #F7F7F7",
"9	c #939393",
"0	c #F6F6F6",
"a	c #535353",
"b	c #BBBBBB",
"c	c #9A9A9A",
"d	c #262626",
"e	c #E9E9E9",
"f	c #D1D1D1",
"g	c #404040",
"h	c #F0F0F0",
"i	c #D6D6D6",
"j	c #CDCDCD",
"k	c #9C9C9C",
"l	c #EEEEEE",
"m	c #868686",
"n	c #4F4F4F",
"o	c #4B4B4B",
"p	c #F4F4F4",
"q	c #FEFEFE",
"r	c #818181",
"s	c #C0C0C0",
"t	c #D4D4D4",
"u	c #D5D5D5",
"v	c #BFBFBF",
"w	c #2E2E2E",
"x	c #ECECEC",
"y	c #989898",
"z	c #9F9F9F",
"A	c #2A2A2A",
"B	c #808080",
"C	c #585858",
"D	c #767676",
"E	c #C2C2C2",
"F	c #DBDBDB",
"G	c #B6B6B6",
"H	c #323232",
"I	c #EDEDED",
"J	c #949494",
"K	c #AAAAAA",
"L	c #838383",
"M	c #F3F3F3",
"N	c #454545",
"O	c #656565",
"P	c #FAFAFA",
"Q	c #6A6A6A",
"R	c #C5C5C5",
"S	c #CECECE",
"T	c #E2E2E2",
"U	c #ADADAD",
"V	c #353535",
"W	c #909090",
".+@##$.........%##&*.",
"..=-#;>.......,;#-'..",
"...)##!......~{##]...",
"...*^##/.....]##{~...",
"....(_#:<...=-#;,....",
".....[##}..*^##|.....",
".....12##3.4##5......",
"......67#897#0a......",
".......b#####c.......",
".......de###f........",
"........|###=........",
".......gh###i........",
".......j##7##k.......",
"......9##lm7#0n......",
".....op#qr.s##t......",
".....u##v..wx##y.....",
"....z##eA...Bq#po....",
"...C8#_D.....E##f....",
"...F##G......HI##J...",
"..K##@*.......Lq#MN..",
".OP#-Q.........R##S..",
"+T##U..........Vl##W."};
