/* XPM */
static xpm_string_t Y_xpm[] = {
"21 22 45 1",
" 	c None",
".	c #000000",
"+	c #DDDDDD",
"@	c #FFFFFF",
"#	c #B4B4B4",
"$	c #707070",
"%	c #FCFCFC",
"&	c #F8F8F8",
"*	c #5D5D5D",
"=	c #5F5F5F",
"-	c #F9F9F9",
";	c #FBFBFB",
">	c #1C1C1C",
",	c #E5E5E5",
"'	c #A7A7A7",
")	c #E6E6E6",
"!	c #B5B5B5",
"~	c #DBDBDB",
"{	c #DCDCDC",
"]	c #B6B6B6",
"^	c #6D6D6D",
"/	c #5C5C5C",
"(	c #717171",
"_	c #161616",
":	c #E4E4E4",
"<	c #A3A3A3",
"[	c #A4A4A4",
"}	c #E7E7E7",
"|	c #DADADA",
"1	c #B8B8B8",
"2	c #F7F7F7",
"3	c #565656",
"4	c #585858",
"5	c #737373",
"6	c #A0A0A0",
"7	c #A1A1A1",
"8	c #E8E8E8",
"9	c #D7D7D7",
"0	c #F6F6F6",
"a	c #535353",
"b	c #9D9D9D",
"c	c #ADADAD",
"d	c #E0E0E0",
"e	c #9B9B9B",
"f	c #D4D4D4",
".+@@#..........$%@&*.",
".=-@;$........>,@@'..",
"..'@@)>.......!@@~...",
"...{@@]......^;@&/...",
".../&@%(...._:@@<....",
"....[@@}>...#@@|.....",
".....|@@1..^;@23.....",
".....42@%5_:@@6......",
"......7@@8]@@9.......",
".......9@@@@0a.......",
".......a0@@@b........",
"........c@@d.........",
"........e@@f.........",
"........e@@f.........",
"........e@@f.........",
"........e@@f.........",
"........e@@f.........",
"........e@@f.........",
"........e@@f.........",
"........e@@f.........",
"........e@@f.........",
"........e@@f........."};
