/* XPM */
static xpm_string_t Z_xpm[] = {
"21 22 57 1",
" 	c None",
".	c #000000",
"+	c #989898",
"@	c #FFFFFF",
"#	c #F1F1F1",
"$	c #CFCFCF",
"%	c #8A8A8A",
"&	c #FDFDFD",
"*	c #E6E6E6",
"=	c #323232",
"-	c #686868",
";	c #F7F7F7",
">	c #F3F3F3",
",	c #585858",
"'	c #404040",
")	c #ECECEC",
"!	c #FBFBFB",
"~	c #7D7D7D",
"{	c #161616",
"]	c #DADADA",
"^	c #9F9F9F",
"/	c #C2C2C2",
"(	c #BFBFBF",
"_	c #A2A2A2",
":	c #D9D9D9",
"<	c #0D0D0D",
"[	c #808080",
"}	c #EBEBEB",
"|	c #3D3D3D",
"1	c #5C5C5C",
"2	c #F4F4F4",
"3	c #F6F6F6",
"4	c #656565",
"5	c #353535",
"6	c #E7E7E7",
"7	c #888888",
"8	c #D4D4D4",
"9	c #AAAAAA",
"0	c #B9B9B9",
"a	c #C8C8C8",
"b	c #979797",
"c	c #DFDFDF",
"d	c #222222",
"e	c #757575",
"f	c #FAFAFA",
"g	c #EEEEEE",
"h	c #4B4B4B",
"i	c #4F4F4F",
"j	c #F0F0F0",
"k	c #F9F9F9",
"l	c #707070",
"m	c #262626",
"n	c #E2E2E2",
"o	c #FEFEFE",
"p	c #939393",
"q	c #CBCBCB",
"r	c #B4B4B4",
".+@@@@@@@@@@@@@@@@#..",
".+@@@@@@@@@@@@@@@@#..",
".+@@@@@@@@@@@@@@@@$..",
"..............%&@*=..",
".............-;@>,...",
"............')@!~....",
"...........{]@@^.....",
".........../@@(......",
".........._@@:<......",
".........[!@}|.......",
"........12@34........",
".......56@&7.........",
".......8@@9..........",
"......0@@a...........",
".....b@@cd...........",
"....ef@gh............",
"...ij@kl.............",
"..mn@op..............",
"..q@@r...............",
".9@@@@@@@@@@@@@@@@@~.",
".8@@@@@@@@@@@@@@@@@~.",
".8@@@@@@@@@@@@@@@@@~."};
